<mxfile host="Electron" agent="Mozilla/5.0 (X11; Linux x86_64) AppleWebKit/537.36 (KHTML, like Gecko) draw.io/28.2.5 Chrome/138.0.7204.251 Electron/37.6.1 Safari/537.36" version="28.2.5" pages="6">
  <diagram name="paso_0" id="uVoO6l-Rrtz2URVDu3uX">
    <mxGraphModel dx="945" dy="581" grid="1" gridSize="10" guides="1" tooltips="1" connect="1" arrows="1" fold="1" page="1" pageScale="1" pageWidth="850" pageHeight="1100" math="0" shadow="0">
      <root>
        <mxCell id="0" />
        <mxCell id="1" parent="0" />
        <mxCell id="fl4jy1Y-E5SFBrdEKloO-2" value="&lt;span style=&quot;color: rgb(77, 77, 77); font-family: &amp;quot;Cascadia Code&amp;quot;;&quot;&gt;&lt;font style=&quot;font-size: 18px;&quot;&gt;&quot;Bruno&quot;&lt;/font&gt;&lt;/span&gt;" style="rounded=0;whiteSpace=wrap;html=1;strokeWidth=1;fillColor=#DFEAF2;" parent="1" vertex="1">
          <mxGeometry x="285" y="305" width="120" height="70" as="geometry" />
        </mxCell>
        <mxCell id="fl4jy1Y-E5SFBrdEKloO-4" value="&lt;span style=&quot;color: rgb(77, 77, 77); font-family: &amp;quot;Cascadia Code&amp;quot;;&quot;&gt;&lt;font style=&quot;font-size: 18px;&quot;&gt;&quot;Carla&quot;&lt;/font&gt;&lt;/span&gt;" style="rounded=0;whiteSpace=wrap;html=1;strokeWidth=1;fillColor=#DFEAF2;" parent="1" vertex="1">
          <mxGeometry x="405" y="305" width="120" height="70" as="geometry" />
        </mxCell>
        <mxCell id="fl4jy1Y-E5SFBrdEKloO-6" value="&lt;span style=&quot;color: rgb(77, 77, 77); font-family: &amp;quot;Cascadia Code&amp;quot;;&quot;&gt;&lt;font style=&quot;font-size: 18px;&quot;&gt;&quot;Diego&quot;&lt;/font&gt;&lt;/span&gt;" style="rounded=0;whiteSpace=wrap;html=1;strokeWidth=1;fillColor=#DFEAF2;" parent="1" vertex="1">
          <mxGeometry x="525" y="305" width="120" height="70" as="geometry" />
        </mxCell>
        <mxCell id="fl4jy1Y-E5SFBrdEKloO-8" value="&lt;span style=&quot;color: rgb(77, 77, 77); font-family: &amp;quot;Cascadia Code&amp;quot;;&quot;&gt;&lt;font style=&quot;font-size: 18px;&quot;&gt;&quot;Elena&quot;&lt;/font&gt;&lt;/span&gt;" style="rounded=0;whiteSpace=wrap;html=1;strokeWidth=1;fillColor=#DFEAF2;" parent="1" vertex="1">
          <mxGeometry x="645" y="305" width="120" height="70" as="geometry" />
        </mxCell>
        <mxCell id="fl4jy1Y-E5SFBrdEKloO-10" value="&lt;span style=&quot;color: rgb(77, 77, 77); font-family: &amp;quot;Cascadia Code&amp;quot;;&quot;&gt;&lt;font style=&quot;font-size: 18px;&quot;&gt;&quot;Ana&quot;&lt;/font&gt;&lt;/span&gt;" style="rounded=0;whiteSpace=wrap;html=1;strokeWidth=1;fillColor=#DFEAF2;" parent="1" vertex="1">
          <mxGeometry x="165" y="305" width="120" height="70" as="geometry" />
        </mxCell>
        <mxCell id="fl4jy1Y-E5SFBrdEKloO-22" value="" style="group" parent="1" vertex="1" connectable="0">
          <mxGeometry x="190" y="180" width="200" height="120" as="geometry" />
        </mxCell>
        <mxCell id="fl4jy1Y-E5SFBrdEKloO-19" value="" style="group" parent="fl4jy1Y-E5SFBrdEKloO-22" vertex="1" connectable="0">
          <mxGeometry width="200" height="100" as="geometry" />
        </mxCell>
        <mxCell id="fl4jy1Y-E5SFBrdEKloO-13" value="&lt;font style=&quot;font-size: 32px;&quot;&gt;🕵🏻&lt;/font&gt;" style="text;html=1;align=center;verticalAlign=middle;whiteSpace=wrap;rounded=0;" parent="fl4jy1Y-E5SFBrdEKloO-19" vertex="1">
          <mxGeometry y="40" width="70" height="60" as="geometry" />
        </mxCell>
        <mxCell id="fl4jy1Y-E5SFBrdEKloO-18" value="&lt;font style=&quot;color: rgb(77, 77, 77);&quot;&gt;&lt;span style=&quot;font-family: &amp;quot;Cascadia Code&amp;quot;; font-size: 18px;&quot;&gt;¿&lt;/span&gt;&lt;font style=&quot;font-family: &amp;quot;Cascadia Code&amp;quot;; font-size: 18px; color: rgb(77, 77, 77);&quot;&gt;&quot;Francisco&quot;&lt;/font&gt;&lt;span style=&quot;font-family: &amp;quot;Cascadia Code&amp;quot;; font-size: 18px;&quot;&gt;?&lt;/span&gt;&lt;/font&gt;" style="whiteSpace=wrap;html=1;shape=mxgraph.basic.roundRectCallout;dx=30;dy=15;size=5;boundedLbl=1;" parent="fl4jy1Y-E5SFBrdEKloO-19" vertex="1">
          <mxGeometry x="40" width="160" height="60" as="geometry" />
        </mxCell>
        <mxCell id="iQ11L_541_rytMSqQVf5-4" value="" style="shape=image;verticalLabelPosition=bottom;labelBackgroundColor=default;verticalAlign=top;aspect=fixed;imageAspect=0;image=data:image/png,iVBORw0KGgoAAAANSUhEUgAAAQAAAAEACAYAAABccqhmAAAQAElEQVR4AeydCXxU1b3H/wkgVq01M6OtZkZZEgJBBYyCGKqxtvb1+epziwVFQFBxacEFBApCWFQQN3BBwY1FoY1Ln319tbbWuEQFCYtKICQCOhPcZu5Y68qSvP9/Mlcmk7nn3Mls997zz+ec3HvP/9zl/P73/73nLnNvPvAfK8AKKKsAA0BZ13PDWQEABgDvBayAwgowABR2PjddbQWo9QwAUoEzK6CoAgwARR3PzWYFSAEGAKnAmRVQVAEGgKKO52arrYDeegaArgQPWQEFFWAAKOh0bjIroCvAANCV4CEroKACDAAFnc5NVluB2NYzAGLV4HFWQDEFGACKOZybywrEKsAAiFWDx1kBxRRgACjmcG6u2grEt54BEK8IT7MCCinAAFDI2dxUViBeAQZAvCI8zQoopAADQCFnc1PVViBR6xkAiVThMlZAEQUYAIo4mpvJCiRSgAGQSBUuYwUUUYABoIijuZlqK2DUegaAkTJczgoooAADQAEncxNZASMFGABGynA5K6CAAgwABZzMTVRbAVHrGQAiddjGCjhcAQaAwx3MzWMFRAowAETqsI0VcLgCDACHO5ibp7YCstYzAGQKsZ0VcLACDAAHO5ebxgrIFGAAyBRiOyvgYAUYAA52LjdNbQXMtJ4BYEYlrsMKOFQBBoBDHcvNYgXMKMAAMKMS12EFHKoAA8ChjuVmqa2A2dYzAMwqxfVYAQcqwABwoFO5SayAWQUYAGaV4nqsgAMVYAA40KncJLUVSKb1DIBk1OK6rIDDFGAAJOHQioqKrsVDiy/BWe7DPKekvKQEh5xyrEDR0KJBuAnzMS8qOrXkXBzmYeZkQgEGgAmRqEppZcVhNTU1/2h8s/FJnP4t5lsaahs2F3g9BASc5JQLBVxe18SmN5vW47qnYJ7Q9FbD/+BwTdlVZd1wyEmiAANAIhCZKfjrq2v+iuNnYI5N3cOB4Ep3ofuy2EIez44CLp/rRi2g3Ytri9+PL65bWvck9djQplRKtrHxwiU7v+Prl59b/sNo8A8zaGx+qDn0RIHXc6mBnYszoIDL57lJ82t3CRZdiT22xysrK7sI6ihvYgAIdgE68tc+X/t/WMUo+NEUSfnhQHAF9wQiWmT8Hwb/JM0fvNPEikZWV1cvhSrg/RwS/7EwiXUBCn7JkT9+zkhPgCEQL0t6pwu87qkY/AuTWOpYqAK6aMsXBqHjHwOgoyZ68L+AJtmRH6u0SwSBx3EnHdmulCfSogDqOjUcCN3eiYVdi/OIThfQbP/UmRYwAOJUiznyl8eZzE52wZ10OfcEzMplrh7qOQ117Uzw6yu4ocDnvk2f4GGbAgyANh0i/01c8IvUM/GPegJ8YdCEUGaquH3u6XihNeXgDftD03BZM8ysU5U6DICop+nIb+aCX/cu+bDyjEHwK+9R0TkNB3xh0FAa8wYM2Okhf2iebI4xxT6Ye1JfWTXAZc3FUwl6ZkBaV4UKDAD0MgW/mQt+FPwrTh8Evyw8Ch4ZNtAUBPDI9QR2X/k5AdQ52ZRM8C84pRTG9z0OZgwslq4GTyXmu7yuidKKNqrQ2U1VHgDJBv+ZR3siWnfLz2MIRJTIzD+zwT+2jw8o+PVL/BNKe8FNx/eWbpQW0O4pKPSMl1Z0eAWlAdDZ4Nf3CYaArkR6hy6vpwq76tJuPwX/7SeXgh78+lZMObEIJpT21CeNhnnh5uAS7J2NNqqgQrmyAEg1+PWdgyGgK5GeIQb/bC0QnCVb2rg+x0Ki4NfnmzGwD1xVcpw+aTTMw1O0xwp8nhFGFZxeriQA0hX8+s7BENCVSG0YDf6ZsqVcWULB36/DkT9+vnllfWF0kS++OH46P+wPrnB73RfEG+wyncp2KgeAdAe/Lj5DQFeic0OzwT8ej+q3lvUzvZI7BpfC8F6FsvpdQ4HQarwmcI6sotPsSgEgU8Gv7xQMAV2J5IauQvdc7PZLj/wU/HPxqJ7M0un6wL1D+kNlj6Nlsx2E1wSecflcZ8sqOsmuDAAyHfz6TsEQ0JUwN4wEf3NI+nDONX17QLLBr29Bfl4e3Df0BDjH92O9yGjYXfNrf/J4PRVGFZxWrgQAshX8+s7BENCVkA7nayaDf/ZJqb18iSCwtHwAnF14pGyjfhAMBP/sKnQNlVW0gj3VbXA8ALId/LpDGAK6EoZDeoWX9Im8a/r1gFSDX98C8smjwwbCGT9x60VGw8O0Zu0Fj89zslEFp5Q7GgC5Cn5956Adjp8Y1NVoN1yAU9Lgv5aCf1BqR35cT7tET3OuPOMkOO2ognblCSYOD/qDLx5ReNSABDbHFDkWALkOfn0PYQjoSnw/pN/y3/z9lMHIxP49oSrNwa+v6uAu+fBURRmc4jlCLzIaFnze/Ok/XMe6So0q2L3ckQAoraw4LJln+/XHezPlTIbA98pS8E/6fspghIJ/+oA+Btb0FB/StQv84cwyGOT+kWyBHu1D7aXeQ3sXySpm256O9TkOAFYLft1JDAGwTPDrPjmsW9cIBE50Ha4XGQ1/8v6b77986vBTexhVsGu5owBg1eDXdw6FIWC54Nd9csRB3SIQ6HfED/Uio6H3rTVv/bOssvxYowp2LHcMAKwe/PrOoRgE8rDd9Npuabf/huN7Qaa7/bgtCZO7+0Hw9M9OhuLDD01ojynsWVdd+/dBw8uPiSmz9agjAGCX4Nf3FEUgoAf/RL3dRkMK/mknyn/HbzR/OsqPPPggqEYI9PzhIbLF9dm4pvbvp51/mvSNMLIFpWJP17y2B4Ddgl93nMMhoAf/BL29RkMrBL++bccccnCkJ1B46MF6kdGw9I3n3vjb4PMHSx8oMFqAVcptDQC7Br/ufIdCwHTwTz6hN+T6yK/7Qh/6Dv0BPHfWKfCTH3TXi4yGA9c9t+6vA8+rOMKogh3KbQuAcvkXeyL6H9ylC6w8fRBk+lZfZGWd+KdD4D9MvGMwZP0vEFHwL0YZpEf+KScWweQTrHlnrcdhh8CzCAEPnhZgW0TplE1/qnmBDkSiSla22RYAtc/XPo7CDsNsmCj4V50xCCqir/EyrJhjA0Hg0WEDwAwEwoHg8gKvBT9I2vb1nftRSvpwKg6M01QMfjOv7TJeQuYtRXhBkC4MFnSXfmN0SH11zROZ36IDa0jnmC0BUHRaEb307UKREHrwny5/7lu0mKzZuuXng0kIdEEIrLAUBCj4q+BBFIs+wIED40TBf6OJd/YZLyF7llK8NfjHM8vgR3irULLWC4tPLu4lqWNJsy0BkNeSJ33h26giL9gl+PU9Q4eAiVeORyHgHqnPm7PhgeCXvmDz9wOKwS7Br+s5wPUjuLxY+lYhaOmSf5w+j52GtgRAa2vrNhS5FbNhemT7h7CqKWBot6qBIPCIudMBhEDkq8SX5KwtSQT/jIHFcH1/+x0k1+xohsX1O2USt3TtCg2ySla02xIATWsjkb1MJGhLaytMerseVjT6RdUsaSMIWP50oC34H0IBpUd+Cn56XTfWtVWi4L9+7RagfUmy4Q831DbsltRJizndC7ElAEiEsqvK6GJTNY0bZXLczeu3wuPYGzCqY9VyHQKWPB04EPxXyvRTIPifwX1R+rCTTKdc2W0LgLqldXsrKiqo+/tHkXgEgakIgUcaPhRVs6SNIGDyfQJ0OrDcXei+LOMNSSL4Zw3qAw4/8lPwj6B9MeO6Z2gFtgUA6VFTU7MPIXApjq/BbJjoYsH0uq2wzJYQsNAXiJIM/uv6Sa/VGvosV4Ykuv22D37S2NYAoAZEIUBHvidp2igTBGYgBB7atsuoimXL6TkBkz2ByFeJM9ETqKys7AJVQNddpN1+OvJz8EPa/zKxQNsDgEQhCOAOSp94WknTRpkgMHNDAzywVXpV12gROSvPJQRQ2y7V1dWPYuPHYhYmDn6hPJYzOgIApCruoPtxR70cx1dgFqbZG7czBIQKHTCipnrwE2APGBKMcfAnEMXiRY4BAOkchQAdpZbTtCgTBBbX7xBVsaQtmz2BaPDTI9fC4KcfANDXerjbb8ldRrhRjgIAtZQgAFVAEKDzVRD9zdvUCHe/976oiiVt2YBATPDT9RVDHSj455X1A/pen2ElixrsdMEvUxI6DgARoaqgBargaoDIRSscGKf57zTBXQyBdgJx8LeTwxFX+9u1KGbCmQCgBh6AwMM0KcoLEAIL320SVbGkLRM9gWSCn7r9fOS35K5heqOcCwCSoA0C9Au1JTQpygvffR9uf6dRVMWStnRCoKKioiueQtH1E2m3/7aT+8EVJcdaUhPRRnG3v706zgYAtZUgAHAdjtJv1XFgnO55b4eyEKDgx9updBuVHqwyFInO+Sn4x/Xh4DcUKc2GTC7O+QBoU68VBxMw09tqcGCcCAK3bt5uXMGillR6AjHBP1zUPA5+kTr2tKkCAPIOQeB6HJFCYNGWnaAKBKLBvwp1EQZ/fl4eLDylFPjIj0o5KKkEAHKbDoG7aUKUCQJzNtm1JzAATPyKkB4bfhy7/a+iDr/BbJgo+O/E4B9l4sUYhgvJkeGPO3eDyZ/0Ovpqv5H8qgGAdGjFfzdhvhOzMN1fvxNmbbDfex6S+RUhCjAUs2HSg39kkdewjlUNT+/6CCa+9Z6Z3/NbNvgzra2KANA1nYwjd2AWpiXbdsHMDduEdaxoTOKagOHm2z34f/fmu7C/lXhv2EQyKBv81HiVAUDtn4L/FmAWpoe2fQD0c2JhJQsaU4EAB78FHZqBTVIdACTpVFehex6NiDK9S2Dq+nqQHk9EC8mBrTMQ4ODPgaNytEoGAAqvNYduMQOBx7b7YdrbdoWAqQuDQMF/9+D+YMdzfrrg91sHdftx18x4YgBEJY5AwOuZE500HDzW6IcptoRAPsheKkLBf++Q/nBJ70LD9lvV8DRf8OuUaxgAMbJpgeAst889I6Yo4egTCIHJ67Y46nSgC97nX3Tq8TC8lz2Dny/4Qaf+GABxsoX8oVtdXtesuOIOkyuaAnDTWntC4NFhA2FCaU84vFvXSLuKDz8Ulp8+CH7T85jItJ3+0bP9Jrv9T5ddVWbrF3hmwi8MgASqagFtjpmewKr37QmBrvl5MGNgH2isPAt2YK79r2FwduGRCZSwdhGd8yfxkM8ldnp7b7aUZwAYKE09gQKve5qB+ftigsDEt94187DJ9/NYZYSe7T8s2guwyjaZ3Q4+5zerlLgeA0CgTzgQmu/yeeiBIUEtgDU7dsMEc0+cCZfDRnMKUPDzOb85rWS1GAAShTR/8E6Xz0WPDgtrUnf0OrwFRR8iEVZkY0oKcPCnJF+HmRkAHSTpWKD5tbtdha4bO1ralzyDt6IYAu01SeeUKsGfTs1ky2IAyBSK2rVm7R68O0A/JxY+DEgQuOaNd2Bfi7BadKk8MKsAB79ZpZKrxwBIQi8toC0q8Lnpo6TC6H7ug49hfO1mhkAS2oqqcvCL1EnNxgBIUr+wP/SgGQj82f8JQyBJbRNV5+BPpEr6BAOZ9wAAEABJREFUyhgAndAyCgF6z6CwJ8AQ6IS4MbOoGPwxzc/KKAOgkzIjBJYUFHquwdmlELgSTwf2trRgVU5mFeDgN6tUavUYACnoF24OPoy3CK/ARQgh8Bc8HRj72ibYwxBAqeSJg1+uUbpqMABSVFLza4+ZgcDfmj+DcQwBqdoc/FKJ0lqBAZAGOaMQGIeLEvbzCQLcE0CVDJLqwW8gS0aLGQBpkhch8HiB1z0aF7cfs2F6EXsCo17ZCN/uF7LCcH6nGjj4c+NZBkAadQ8HQqsKvB4pBP75URBGv7qBIRDVnoM/KkQOBgyANIseDgSfRAiMwsUKewIvfxSCUQwB4ODHPSWHiQGQAfERAk/hhcFLcdH7MBumGoTAZa9sgK/3CVlhOL/dDRz8BzyYqzEGQIaUx2sCf3AVui7BxQsh8MrHIRipIAQ4+HHPsEBiAGTQCVqzVo0QGIGr2IvZML3+iaYUBDj4DXeFrBsYABmWHCHwtMvrMgWBS2rqHH86wMGf4R0uycUzAJIUrDPVtYD2jNvrpg9w7hHN/8anYRiBEPjSodcEOPgTez+XpQyALKkfCoSe8/g8lbg6IQTeJAi8XAdf7hVeOsDF2Ctx8FvTXwyALPol6A8+bwYCaz+jnoBznhOgl6Twq7uzuKMlsSoGQBJipaNqDAS+Ey2PIPDg1p2iKrawad/tgZvWbTHz1mR6bz+/ujvLXmUAZFlwWh1BoMB75AU4LoQAPTaMdWydXsM7HCaec1A2+HPtXAZArj3A6ycFeD8kFXKQWfgciI7XAc4NBz57FlfdHbNhsuPXeuIb89Mfu+CQrl3ii+OnL6hbWre67KqybvEGns6sAgyAzOrbYekU/HgKUI0GYfAPObIAru3XE6vZO7m6HwR3De4P+Xn0HSJhWy5kCAj1yYiRAZARWRMv1OPznBsN/oMS12grpeBfXXESHNzFGe65sMfRcP/QE4C+QNzWQsP/FyIE1qjSEzBUIYsGZ+xhWRSss6tye93nmwn+oUcVwOozy8Cu3+wz0ucihMB95iBApwMMASMh01zOAEizoIkW5/K6LgwFQn9Am/DIPwzPl1dXYPDLz5lxUfZLDAHr+YwBkGGfuApdlVpAW42rEV7gouBfdcZJZi6Y4aLsmxgC1vIdAyCD/ogEf7P2FK6Cgx9F0BNDAEDXItdDBkCGPFDg84zQ2oK/q2gVFUe74Sns9pu4VSZajO1sDAFruIwBkAE/FHg9l4T9wZW4aGHwn4nBv+J051ztx/YmlRgCScmVkcoMgDTLWuB1jwwHgitwscKnXyj4lysc/KhPJDEEIjLk7B8DII3Suwvdl4UDoSdwkcLg/9nRHlD5yI/6tEuqQaBd43M8wQBIkwNcPtfYULM8+Onx3hVnDILuDnnIJ03yAUMgXUomtxwGQHJ6JaxNwa/5tUfQKNTzl4VHwmM/HQgH5Qur4WLUTAyB7Pud98QUNXd5XeOiwS982J2C/1EOfqnaDAGpRGmtwABIQc6CQs94LaAtw0UIg/8c34/5yI8imU0XOfixYbMaZKseA6CTShf43NeGm4NLcHZh8P8ag39Z+QDoxt1+lMp8YgiY1yqVmgyATqgXCX5/6H6cVRr8D2Pwd80XVsPFcEqkAEMgkSrpLWMAJKknB3+SgqVYnSGQooCS2RkAEoFiza5C1w1hf+gBLBMe0un378uGDQA+8qNSaUhOgUAapEj7IhgAJiWl4Neatbtl1Sn4Hxh6gpk34MgWxfYYBRgCMWKkcZQBYEJMvM9/Iwe/CaEyXIUhkH6BGQASTV0+zyTNr90lqQYX9zwG+MgvUyl1O0MgdQ1jl8AAiFUjbrzA656q+YML44o7TA7vVQiLTz2eu/0dlMlMQZIQsMTbhjOjROpLZQAYaOj2uaeHA6HbDczfF4/s7YVFNg3+VmyFXb9BSBAwqTu9aJQhgL5OlBgACVRxeV0zQ/7QvASmdkUU/HcN6Q/CWwLt5rDGxL6WVpi3aTsUV78EvTCX/+/rYMevENFp172of765V44/xW8b7rj/MQDiNKHg1wLa7LjiDpOjirxgx+Dfi8E/7vVNsLh+J3wR/QJx4xdfwahXN8KaHc0d2mn1guF4+mXyleMX1fHHRzq4kwEQI4nL65ltJvjHFPtg4WD7Hfkp+K/A4P9r4NOYVreNtrS2wvVrt8CqpkBbgY3+X2T+twM5OR2wspQMgKh3XIWeOVogODM6aTgY28cHC04ptV23XxT8emMJApPermcI6IIoMGQAoJMLfO5btebgLTgqTBT8t5/szODXG84Q0JVQY8gAAJgf9od+L3P3+JLjYL7Dg1/XgCGgK+H8oeoAWIAunoJZmK7uexzMLesrrGNFo5luv9F2MwSMlEmu3Oq1VQYAPeBzs8xB1/TrAXNOUiv4dU10CKzkC4O6JI4bqggAum1/L3pyEmZhug6Df/agEmEdKxqTOPK34PbXYjZMBIHJeGHQrhCgh4W6mHtOQMmHhVQDgB78Ew33+KhhYv+eMMvhwe8udI+pwD9s8hrMhokgMGndFnh0+4eGdaxqoIeFTH6VWMlbhCoBQA/+CbKdlYJ/+oA+smqWsydz5KfgDzWHVtbU1OxDBlyGjRFCgB4b/v36rbaEQK6eE0BNLZ9UAQAF/2L0hjT4bzi+F6gS/KhHJMVA4MlIgcE/hoCBMDYudj4AqoDaSC/v/K3MTzcd3xumnVgsq2Y5e2eO/PGNIAhUVlaOxnL6piEOEicdAo802O90gHsCHX1KwdGx1CklFPxV8CA2ZzxmYZp8Qm+YcmKRsI4VjekIfr1d1dXV+xECl+O0FALT67bCMoYASmXv5FwAtAX/Q+geafBT4E8+Qe3gR50iKRkIzGAIRDRL9M8uZc4EwIHgv1LmiKl41Keuv6ye1ezpPPLHty1ZCDy0bVf8Iiw/zacDbS5yHACwC9sFquAxAJAG/4yBxXAjnvdjXVulTAa/LkQMBJbrZYmGdE1g5oYGeGDrzkRmS5cxBCBygczSTkpm4yj4ccd9HOehi1k4ME6zBvWBCaW9jCtY1JKN4NebjlrSNYFxOC2EANph9sbtDAESwmbZMT2AmOCne9pCN1DwX9evp7COFY3ZDH69/QQBqIKxALAMszAxBNrksdN/RwCgoqKiK+6odJQSBn8eembOSSXAwY9CJJOqoAWq4GpgCKAE4KgnBm0PAAp+vIdNt60uJe8YZQr+eWX94Oq+PYyqWLY8F0f+DmIwBGIlcQwEbA2AaPDT02vDY70TP07BfysG/5Ulx8abLD9tieDXVUoSAovrd+hz2mZ4kWKvF7MtAOgNr3jkfwr3rIsxGyZ6Y+z8k/vBFbYM/hYweodfXIP3F3jdo+nZ/rjy9E8egMBS2cLnbWoEu0KAfkVI+46kjR16ApL6ljPbFgB1S+vuRzUrMRsmcuAdGPyX97HjkZ+CfzMkeoFnXIMx+D2jwoHQqrjyzE22QeAaXIFjIUC/IkzileOLUAtbJlsCoGhIkRfVFt7np+C/85RSGFXsw6r2Sntbkg3+IPWEstvIAxB4WLZiu/YE6JXjJiEwvqS85BiZDla02xIAeXl5fVFMOrXHQeI0ro8PRkY4kdhu1dLkgt89JhzIQfDr4hEEAKgnQI9c66UJhwSBu997P6HNyoUEgev7S28Z5+/bC7RPWrkpCbfNlgBozW+VPna2sqkZaj4KJmy0VQuTC/4sd/uNRWuFKrgOAOgXlzgwTvPfaQK7QWCz9i94dLvfuFFRS35Ly67oqK0GtgRA0xtNdCh5RqT0t/v3w6hXN9kGAskHfw6P/PHCt/UECAL0y8t4a7tpgsBdNukJ1H/+b7j45Tr415697dqQYOKZxvWN9rvlgQ2xJQBwu6H83HL62errNG6UdQi8bPGewN6WVrzab+qCX0uB1zM6p91+I7EBWtFE71ygi7M4apwWYE9g4btNxhUsYGn64iu46J/rIfydNPjXlVZWjLHAJndqE2wLgNrna/+Nwv8KW/0aZsPUBoGNYFUItAX/JjNX+1voNV4Y/PTcg2F7c2wgCEzAbViMWZgWvvs+3P5Oo7BOrowffPkNXPDS2xD8do9sEzYMPK/il/XVNV/KKlrVblsAkKAkPELgP3FcCIHv9rfg6YD1IJBs8GflPj+KmWIiCFyPy5DeGrvnvR2Wg4D/q2/gvJfWwcfffIdNEKb3Bp8/+OxNf6r5nGrZNdsaACS6XSHg0OAnl1AmCNyAI6YgcNtma/QEdn/9baTb3/zVt7jpwrRtyIghP1/33LqQsJYNjLYHAGlsNwg4PPjJJZQJAtQTuJMmRPneLTvg1s3bRVUybvsMu/uVeM6/899fy9a1fdDw8rPWrl77iayiHeyOAAAJbRcIKBL85BI9T8YRKQQWbdmZMwiEvtsTOfI34oU/3FZR2llWWf6LjWtqd4sq2cnmGACQ6FaHgILBT26hbFkIfI63+H6Dt/q24i0/2lBBDgyuHHxWXXVth9chC+axvMlRACC1rQoBhYOf3ELZNATmbsrO6cCXe/cBBf872he0faL8ca/Bfc9aV71up6iSHW2OAwA5wWoQ4OAnr0QyQWBBZEzw7776nTBrY4OgRuqmr/fthxE1G2Bj6F+yhQVdx7rO2rFuW3aoJNuaNNsdCQDSyCoQ4OAnb7TLU3FKCoElW3dlDALf4m3hka9sgLWfhXFThCl8ROFRP9c+1OqFtWxsdCwAyCe5hgAHP3khYZ5a4HPfltASUxiBwIb09gTomZDLX9sIr3+ixawp4egXHp/n7M+bP92c0BottPvA0QAg5+QKAhz8pL5xDvtD012F7nnGNdosS7btgpkbtrVNpPiffHJl7WZ4abf0R2Jfuo5x/SroD65PcZWWn93xACAPZBsCtKOZfJNP5PFemzzhR1KmNWvNoVvMQOChbR/ALXWpQaCltRWuwuB/IfCprA3feLyeX2u7tTdkFZ1gVwIA5KhsQYCDn9Q2nyMQ8HrmyOZ4uKHzEKDg/92b78Jf/NJnd75z+VznBQPBGtn2OMWuDADIYZmGAAc/qZx81gLBWS6TEKCPkiazhsjjiGu3QPWuj2Sz7Sko9Fyo+bUXZRV1uxOGSgGAHJYpCHDwk7qdz2YhsKzhQ5i6vj7y22Mza7t5XT2s2dEsq7rP7XWPCDcH/yKr6DS7cgAgByYLgZd2f0azGWYOfkNpkjJEITBbNtNj2/0wzQQEZuB1g+VN0rf5tBT4PKNCgdCzsvU60a4kAMiRyUBgzGub8MpxYghw8JOa6csIgSq3zz1DtkQZBOZt2g5L8bqBZDmt7kL32LA/uFpSz7FmZQFAHk0VAhz8pGL6c8gfutUsBKa83fF0gN44tLh+p2zDWvGc/xq8A0OflJPV7WB3SoHSACAndhYCHPykXuZyBAKF7umyNTzR6IdYCNBjxGbeOejyum7Ac37pK81l67e7XXkAkANjICB8xyA9RUanAy82fwYm7/PvL8jWF3uoIQ7LeHS+zUxPQHUEFwIAAAPSSURBVIfAw9s+gLnY9ZfJgD6ZogU06ctKZMtxgp0BEPUiQaD83HJTrxej58hNfLGnpSDyAs8sfrEn2hYnDZLpCdxi4olBl881MxwI3eEkjVJpCwMgRr3oi0alEIiZxWg08oRfOBC08gs8jbbdcuXUE8Cj9rRUNwxv9S3Q/NrcVJfjpPkZAHHepJ5A9EWjwtOBuNliJ7nbH6tGmsbDgdD8FCFwL97qo18ipmmLnLEYBkACP0YhIH3leIJZ6ch/Oe6s2ftQZ4KNcGoR6jrf5fPQOwWSbeISnOFGzJziFGAAxAmiT0YhkMzpAAX/GOyurtSXwcP0K6D5g3fiefxNSSx5OVQBfbCEngoG/muvAAOgvR7tpggCeGHwHCx8DbMo0QW/URz8IonSZ8Pz+LuxJzDJxBKfrKysHAdV0AJp+nPaYhgAEo+auDAYOfKH+YKfRMn0mrEncJer0CXq1j9TUVExprq6en961+yspTEATPiTegLRC4PxPxPdgxemRvOR34SIGaiiNWv3uLyu63HR8Uf4Z8uuKhtRU1OzD22cBAowAATixJoIAnhE+UXx0OJLsZw+gDm3pLzkxHCA7/OjHjlLWkBbVHxacRluwALMi4tOLflvHF5Ut7RO+lVPrKd8YgAksQvQEaXxzcancJbfYZ7ZUNvQgENOOVag8Y3GTbgJdItvYtNbDc/jeCvmtCcnLpAB4ESvcptYAZMKMABMCsXVWAEnKsAAcKJXuU2sgEkFGAAmheJqaivg1NYzAJzqWW4XK2BCAQaACZG4CivgVAUYAE71LLeLFTChAAPAhEhcRW0FnNx6BoCTvcttYwUkCjAAJAKxmRVwsgIMACd7l9vGCkgUYABIBGKz2go4vfUMAKd7mNvHCggUYAAIxGETK+B0BRgATvcwt48VECjAABCIwya1FVCh9QwAFbzMbWQFDBRgABgIw8WsgAoKMABU8DK3kRUwUIABYCAMF6utgCqtZwCo4mluJyuQQAEGQAJRuIgVUEUBBoAqnuZ2sgIJFGAAJBCFi9RWQKXWMwBU8ja3lRWIU4ABECcIT7ICKinAAFDJ29xWViBOAQZAnCA8qbYCqrWeAaCax7m9rECMAgyAGDF4lBVQTQEGgGoe5/ayAjEKMABixOBRtRVQsfUMABW9zm1mBaIKMACiQvCAFVBRAQaAil7nNrMCUQUYAFEheKC2Aqq2ngGgque53awAKsAAQBE4sQKqKsAAUNXz3G5WABVgAKAInNRWQOXWMwBU9j63XXkFGADK7wIsgMoKMABU9j63XXkFGADK7wJqC6B66/8fAAD//+oZd/wAAAAGSURBVAMAPNcb8efVBtIAAAAASUVORK5CYII=;" vertex="1" parent="fl4jy1Y-E5SFBrdEKloO-19">
          <mxGeometry x="160" y="53" width="30" height="30" as="geometry" />
        </mxCell>
        <mxCell id="fl4jy1Y-E5SFBrdEKloO-20" value="" style="endArrow=classic;html=1;rounded=0;strokeWidth=2;strokeColor=#4D4D4D;" parent="fl4jy1Y-E5SFBrdEKloO-22" edge="1">
          <mxGeometry width="50" height="50" relative="1" as="geometry">
            <mxPoint x="30.900000000000006" y="90" as="sourcePoint" />
            <mxPoint x="30.900000000000006" y="120" as="targetPoint" />
          </mxGeometry>
        </mxCell>
      </root>
    </mxGraphModel>
  </diagram>
  <diagram name="paso_1" id="oTc00l1SJ-GltGEXfnFo">
    <mxGraphModel dx="1370" dy="843" grid="1" gridSize="10" guides="1" tooltips="1" connect="1" arrows="1" fold="1" page="1" pageScale="1" pageWidth="850" pageHeight="1100" math="0" shadow="0">
      <root>
        <mxCell id="AzN3Wnw64jpZiiK3AUg2-0" />
        <mxCell id="AzN3Wnw64jpZiiK3AUg2-1" parent="AzN3Wnw64jpZiiK3AUg2-0" />
        <mxCell id="AzN3Wnw64jpZiiK3AUg2-2" value="&lt;span style=&quot;color: rgb(77, 77, 77); font-family: &amp;quot;Cascadia Code&amp;quot;;&quot;&gt;&lt;font style=&quot;font-size: 18px;&quot;&gt;&quot;Bruno&quot;&lt;/font&gt;&lt;/span&gt;" style="rounded=0;whiteSpace=wrap;html=1;strokeWidth=1;fillColor=#DFEAF2;" parent="AzN3Wnw64jpZiiK3AUg2-1" vertex="1">
          <mxGeometry x="285" y="305" width="120" height="70" as="geometry" />
        </mxCell>
        <mxCell id="AzN3Wnw64jpZiiK3AUg2-3" value="&lt;span style=&quot;color: rgb(77, 77, 77); font-family: &amp;quot;Cascadia Code&amp;quot;;&quot;&gt;&lt;font style=&quot;font-size: 18px;&quot;&gt;&quot;Carla&quot;&lt;/font&gt;&lt;/span&gt;" style="rounded=0;whiteSpace=wrap;html=1;strokeWidth=1;fillColor=#DFEAF2;" parent="AzN3Wnw64jpZiiK3AUg2-1" vertex="1">
          <mxGeometry x="405" y="305" width="120" height="70" as="geometry" />
        </mxCell>
        <mxCell id="AzN3Wnw64jpZiiK3AUg2-4" value="&lt;span style=&quot;color: rgb(77, 77, 77); font-family: &amp;quot;Cascadia Code&amp;quot;;&quot;&gt;&lt;font style=&quot;font-size: 18px;&quot;&gt;&quot;Diego&quot;&lt;/font&gt;&lt;/span&gt;" style="rounded=0;whiteSpace=wrap;html=1;strokeWidth=1;fillColor=#DFEAF2;" parent="AzN3Wnw64jpZiiK3AUg2-1" vertex="1">
          <mxGeometry x="525" y="305" width="120" height="70" as="geometry" />
        </mxCell>
        <mxCell id="AzN3Wnw64jpZiiK3AUg2-5" value="&lt;span style=&quot;color: rgb(77, 77, 77); font-family: &amp;quot;Cascadia Code&amp;quot;;&quot;&gt;&lt;font style=&quot;font-size: 18px;&quot;&gt;&quot;Elena&quot;&lt;/font&gt;&lt;/span&gt;" style="rounded=0;whiteSpace=wrap;html=1;strokeWidth=1;fillColor=#DFEAF2;" parent="AzN3Wnw64jpZiiK3AUg2-1" vertex="1">
          <mxGeometry x="645" y="305" width="120" height="70" as="geometry" />
        </mxCell>
        <mxCell id="AzN3Wnw64jpZiiK3AUg2-6" value="&lt;span style=&quot;color: rgb(77, 77, 77); font-family: &amp;quot;Cascadia Code&amp;quot;;&quot;&gt;&lt;font style=&quot;font-size: 18px;&quot;&gt;&quot;Ana&quot;&lt;/font&gt;&lt;/span&gt;" style="rounded=0;whiteSpace=wrap;html=1;strokeWidth=1;fillColor=#DFEAF2;" parent="AzN3Wnw64jpZiiK3AUg2-1" vertex="1">
          <mxGeometry x="165" y="305" width="120" height="70" as="geometry" />
        </mxCell>
        <mxCell id="qedjNLaac3IVLXvKGgUS-0" value="" style="group" vertex="1" connectable="0" parent="AzN3Wnw64jpZiiK3AUg2-1">
          <mxGeometry x="310" y="180" width="200" height="120" as="geometry" />
        </mxCell>
        <mxCell id="qedjNLaac3IVLXvKGgUS-1" value="" style="group" vertex="1" connectable="0" parent="qedjNLaac3IVLXvKGgUS-0">
          <mxGeometry width="200" height="100" as="geometry" />
        </mxCell>
        <mxCell id="qedjNLaac3IVLXvKGgUS-2" value="&lt;font style=&quot;font-size: 32px;&quot;&gt;🕵🏻&lt;/font&gt;" style="text;html=1;align=center;verticalAlign=middle;whiteSpace=wrap;rounded=0;" vertex="1" parent="qedjNLaac3IVLXvKGgUS-1">
          <mxGeometry y="40" width="70" height="60" as="geometry" />
        </mxCell>
        <mxCell id="qedjNLaac3IVLXvKGgUS-3" value="&lt;font style=&quot;color: rgb(77, 77, 77);&quot;&gt;&lt;span style=&quot;font-family: &amp;quot;Cascadia Code&amp;quot;; font-size: 18px;&quot;&gt;¿&lt;/span&gt;&lt;font style=&quot;font-family: &amp;quot;Cascadia Code&amp;quot;; font-size: 18px; color: rgb(77, 77, 77);&quot;&gt;&quot;Francisco&quot;&lt;/font&gt;&lt;span style=&quot;font-family: &amp;quot;Cascadia Code&amp;quot;; font-size: 18px;&quot;&gt;?&lt;/span&gt;&lt;/font&gt;" style="whiteSpace=wrap;html=1;shape=mxgraph.basic.roundRectCallout;dx=30;dy=15;size=5;boundedLbl=1;" vertex="1" parent="qedjNLaac3IVLXvKGgUS-1">
          <mxGeometry x="40" width="160" height="60" as="geometry" />
        </mxCell>
        <mxCell id="qedjNLaac3IVLXvKGgUS-4" value="" style="shape=image;verticalLabelPosition=bottom;labelBackgroundColor=default;verticalAlign=top;aspect=fixed;imageAspect=0;image=data:image/png,iVBORw0KGgoAAAANSUhEUgAAAQAAAAEACAYAAABccqhmAAAQAElEQVR4AeydCXxU1b3H/wkgVq01M6OtZkZZEgJBBYyCGKqxtvb1+epziwVFQFBxacEFBApCWFQQN3BBwY1FoY1Ln319tbbWuEQFCYtKICQCOhPcZu5Y68qSvP9/Mlcmk7nn3Mls997zz+ec3HvP/9zl/P73/73nLnNvPvAfK8AKKKsAA0BZ13PDWQEABgDvBayAwgowABR2PjddbQWo9QwAUoEzK6CoAgwARR3PzWYFSAEGAKnAmRVQVAEGgKKO52arrYDeegaArgQPWQEFFWAAKOh0bjIroCvAANCV4CEroKACDAAFnc5NVluB2NYzAGLV4HFWQDEFGACKOZybywrEKsAAiFWDx1kBxRRgACjmcG6u2grEt54BEK8IT7MCCinAAFDI2dxUViBeAQZAvCI8zQoopAADQCFnc1PVViBR6xkAiVThMlZAEQUYAIo4mpvJCiRSgAGQSBUuYwUUUYABoIijuZlqK2DUegaAkTJczgoooAADQAEncxNZASMFGABGynA5K6CAAgwABZzMTVRbAVHrGQAiddjGCjhcAQaAwx3MzWMFRAowAETqsI0VcLgCDACHO5ibp7YCstYzAGQKsZ0VcLACDAAHO5ebxgrIFGAAyBRiOyvgYAUYAA52LjdNbQXMtJ4BYEYlrsMKOFQBBoBDHcvNYgXMKMAAMKMS12EFHKoAA8ChjuVmqa2A2dYzAMwqxfVYAQcqwABwoFO5SayAWQUYAGaV4nqsgAMVYAA40KncJLUVSKb1DIBk1OK6rIDDFGAAJOHQioqKrsVDiy/BWe7DPKekvKQEh5xyrEDR0KJBuAnzMS8qOrXkXBzmYeZkQgEGgAmRqEppZcVhNTU1/2h8s/FJnP4t5lsaahs2F3g9BASc5JQLBVxe18SmN5vW47qnYJ7Q9FbD/+BwTdlVZd1wyEmiAANAIhCZKfjrq2v+iuNnYI5N3cOB4Ep3ofuy2EIez44CLp/rRi2g3Ytri9+PL65bWvck9djQplRKtrHxwiU7v+Prl59b/sNo8A8zaGx+qDn0RIHXc6mBnYszoIDL57lJ82t3CRZdiT22xysrK7sI6ihvYgAIdgE68tc+X/t/WMUo+NEUSfnhQHAF9wQiWmT8Hwb/JM0fvNPEikZWV1cvhSrg/RwS/7EwiXUBCn7JkT9+zkhPgCEQL0t6pwu87qkY/AuTWOpYqAK6aMsXBqHjHwOgoyZ68L+AJtmRH6u0SwSBx3EnHdmulCfSogDqOjUcCN3eiYVdi/OIThfQbP/UmRYwAOJUiznyl8eZzE52wZ10OfcEzMplrh7qOQ117Uzw6yu4ocDnvk2f4GGbAgyANh0i/01c8IvUM/GPegJ8YdCEUGaquH3u6XihNeXgDftD03BZM8ysU5U6DICop+nIb+aCX/cu+bDyjEHwK+9R0TkNB3xh0FAa8wYM2Okhf2iebI4xxT6Ye1JfWTXAZc3FUwl6ZkBaV4UKDAD0MgW/mQt+FPwrTh8Evyw8Ch4ZNtAUBPDI9QR2X/k5AdQ52ZRM8C84pRTG9z0OZgwslq4GTyXmu7yuidKKNqrQ2U1VHgDJBv+ZR3siWnfLz2MIRJTIzD+zwT+2jw8o+PVL/BNKe8FNx/eWbpQW0O4pKPSMl1Z0eAWlAdDZ4Nf3CYaArkR6hy6vpwq76tJuPwX/7SeXgh78+lZMObEIJpT21CeNhnnh5uAS7J2NNqqgQrmyAEg1+PWdgyGgK5GeIQb/bC0QnCVb2rg+x0Ki4NfnmzGwD1xVcpw+aTTMw1O0xwp8nhFGFZxeriQA0hX8+s7BENCVSG0YDf6ZsqVcWULB36/DkT9+vnllfWF0kS++OH46P+wPrnB73RfEG+wyncp2KgeAdAe/Lj5DQFeic0OzwT8ej+q3lvUzvZI7BpfC8F6FsvpdQ4HQarwmcI6sotPsSgEgU8Gv7xQMAV2J5IauQvdc7PZLj/wU/HPxqJ7M0un6wL1D+kNlj6Nlsx2E1wSecflcZ8sqOsmuDAAyHfz6TsEQ0JUwN4wEf3NI+nDONX17QLLBr29Bfl4e3Df0BDjH92O9yGjYXfNrf/J4PRVGFZxWrgQAshX8+s7BENCVkA7nayaDf/ZJqb18iSCwtHwAnF14pGyjfhAMBP/sKnQNlVW0gj3VbXA8ALId/LpDGAK6EoZDeoWX9Im8a/r1gFSDX98C8smjwwbCGT9x60VGw8O0Zu0Fj89zslEFp5Q7GgC5Cn5956Adjp8Y1NVoN1yAU9Lgv5aCf1BqR35cT7tET3OuPOMkOO2ognblCSYOD/qDLx5ReNSABDbHFDkWALkOfn0PYQjoSnw/pN/y3/z9lMHIxP49oSrNwa+v6uAu+fBURRmc4jlCLzIaFnze/Ok/XMe6So0q2L3ckQAoraw4LJln+/XHezPlTIbA98pS8E/6fspghIJ/+oA+Btb0FB/StQv84cwyGOT+kWyBHu1D7aXeQ3sXySpm256O9TkOAFYLft1JDAGwTPDrPjmsW9cIBE50Ha4XGQ1/8v6b77986vBTexhVsGu5owBg1eDXdw6FIWC54Nd9csRB3SIQ6HfED/Uio6H3rTVv/bOssvxYowp2LHcMAKwe/PrOoRgE8rDd9Npuabf/huN7Qaa7/bgtCZO7+0Hw9M9OhuLDD01ojynsWVdd+/dBw8uPiSmz9agjAGCX4Nf3FEUgoAf/RL3dRkMK/mknyn/HbzR/OsqPPPggqEYI9PzhIbLF9dm4pvbvp51/mvSNMLIFpWJP17y2B4Ddgl93nMMhoAf/BL29RkMrBL++bccccnCkJ1B46MF6kdGw9I3n3vjb4PMHSx8oMFqAVcptDQC7Br/ufIdCwHTwTz6hN+T6yK/7Qh/6Dv0BPHfWKfCTH3TXi4yGA9c9t+6vA8+rOMKogh3KbQuAcvkXeyL6H9ylC6w8fRBk+lZfZGWd+KdD4D9MvGMwZP0vEFHwL0YZpEf+KScWweQTrHlnrcdhh8CzCAEPnhZgW0TplE1/qnmBDkSiSla22RYAtc/XPo7CDsNsmCj4V50xCCqir/EyrJhjA0Hg0WEDwAwEwoHg8gKvBT9I2vb1nftRSvpwKg6M01QMfjOv7TJeQuYtRXhBkC4MFnSXfmN0SH11zROZ36IDa0jnmC0BUHRaEb307UKREHrwny5/7lu0mKzZuuXng0kIdEEIrLAUBCj4q+BBFIs+wIED40TBf6OJd/YZLyF7llK8NfjHM8vgR3irULLWC4tPLu4lqWNJsy0BkNeSJ33h26giL9gl+PU9Q4eAiVeORyHgHqnPm7PhgeCXvmDz9wOKwS7Br+s5wPUjuLxY+lYhaOmSf5w+j52GtgRAa2vrNhS5FbNhemT7h7CqKWBot6qBIPCIudMBhEDkq8SX5KwtSQT/jIHFcH1/+x0k1+xohsX1O2USt3TtCg2ySla02xIATWsjkb1MJGhLaytMerseVjT6RdUsaSMIWP50oC34H0IBpUd+Cn56XTfWtVWi4L9+7RagfUmy4Q831DbsltRJizndC7ElAEiEsqvK6GJTNY0bZXLczeu3wuPYGzCqY9VyHQKWPB04EPxXyvRTIPifwX1R+rCTTKdc2W0LgLqldXsrKiqo+/tHkXgEgakIgUcaPhRVs6SNIGDyfQJ0OrDcXei+LOMNSSL4Zw3qAw4/8lPwj6B9MeO6Z2gFtgUA6VFTU7MPIXApjq/BbJjoYsH0uq2wzJYQsNAXiJIM/uv6Sa/VGvosV4Ykuv22D37S2NYAoAZEIUBHvidp2igTBGYgBB7atsuoimXL6TkBkz2ByFeJM9ETqKys7AJVQNddpN1+OvJz8EPa/zKxQNsDgEQhCOAOSp94WknTRpkgMHNDAzywVXpV12gROSvPJQRQ2y7V1dWPYuPHYhYmDn6hPJYzOgIApCruoPtxR70cx1dgFqbZG7czBIQKHTCipnrwE2APGBKMcfAnEMXiRY4BAOkchQAdpZbTtCgTBBbX7xBVsaQtmz2BaPDTI9fC4KcfANDXerjbb8ldRrhRjgIAtZQgAFVAEKDzVRD9zdvUCHe/976oiiVt2YBATPDT9RVDHSj455X1A/pen2ElixrsdMEvUxI6DgARoaqgBargaoDIRSscGKf57zTBXQyBdgJx8LeTwxFX+9u1KGbCmQCgBh6AwMM0KcoLEAIL320SVbGkLRM9gWSCn7r9fOS35K5heqOcCwCSoA0C9Au1JTQpygvffR9uf6dRVMWStnRCoKKioiueQtH1E2m3/7aT+8EVJcdaUhPRRnG3v706zgYAtZUgAHAdjtJv1XFgnO55b4eyEKDgx9updBuVHqwyFInO+Sn4x/Xh4DcUKc2GTC7O+QBoU68VBxMw09tqcGCcCAK3bt5uXMGillR6AjHBP1zUPA5+kTr2tKkCAPIOQeB6HJFCYNGWnaAKBKLBvwp1EQZ/fl4eLDylFPjIj0o5KKkEAHKbDoG7aUKUCQJzNtm1JzAATPyKkB4bfhy7/a+iDr/BbJgo+O/E4B9l4sUYhgvJkeGPO3eDyZ/0Ovpqv5H8qgGAdGjFfzdhvhOzMN1fvxNmbbDfex6S+RUhCjAUs2HSg39kkdewjlUNT+/6CCa+9Z6Z3/NbNvgzra2KANA1nYwjd2AWpiXbdsHMDduEdaxoTOKagOHm2z34f/fmu7C/lXhv2EQyKBv81HiVAUDtn4L/FmAWpoe2fQD0c2JhJQsaU4EAB78FHZqBTVIdACTpVFehex6NiDK9S2Dq+nqQHk9EC8mBrTMQ4ODPgaNytEoGAAqvNYduMQOBx7b7YdrbdoWAqQuDQMF/9+D+YMdzfrrg91sHdftx18x4YgBEJY5AwOuZE500HDzW6IcptoRAPsheKkLBf++Q/nBJ70LD9lvV8DRf8OuUaxgAMbJpgeAst889I6Yo4egTCIHJ67Y46nSgC97nX3Tq8TC8lz2Dny/4Qaf+GABxsoX8oVtdXtesuOIOkyuaAnDTWntC4NFhA2FCaU84vFvXSLuKDz8Ulp8+CH7T85jItJ3+0bP9Jrv9T5ddVWbrF3hmwi8MgASqagFtjpmewKr37QmBrvl5MGNgH2isPAt2YK79r2FwduGRCZSwdhGd8yfxkM8ldnp7b7aUZwAYKE09gQKve5qB+ftigsDEt94187DJ9/NYZYSe7T8s2guwyjaZ3Q4+5zerlLgeA0CgTzgQmu/yeeiBIUEtgDU7dsMEc0+cCZfDRnMKUPDzOb85rWS1GAAShTR/8E6Xz0WPDgtrUnf0OrwFRR8iEVZkY0oKcPCnJF+HmRkAHSTpWKD5tbtdha4bO1ralzyDt6IYAu01SeeUKsGfTs1ky2IAyBSK2rVm7R68O0A/JxY+DEgQuOaNd2Bfi7BadKk8MKsAB79ZpZKrxwBIQi8toC0q8Lnpo6TC6H7ug49hfO1mhkAS2oqqcvCL1EnNxgBIUr+wP/SgGQj82f8JQyBJbRNV5+BPpEr6BAOZ9wAAEABJREFUyhgAndAyCgF6z6CwJ8AQ6IS4MbOoGPwxzc/KKAOgkzIjBJYUFHquwdmlELgSTwf2trRgVU5mFeDgN6tUavUYACnoF24OPoy3CK/ARQgh8Bc8HRj72ibYwxBAqeSJg1+uUbpqMABSVFLza4+ZgcDfmj+DcQwBqdoc/FKJ0lqBAZAGOaMQGIeLEvbzCQLcE0CVDJLqwW8gS0aLGQBpkhch8HiB1z0aF7cfs2F6EXsCo17ZCN/uF7LCcH6nGjj4c+NZBkAadQ8HQqsKvB4pBP75URBGv7qBIRDVnoM/KkQOBgyANIseDgSfRAiMwsUKewIvfxSCUQwB4ODHPSWHiQGQAfERAk/hhcFLcdH7MBumGoTAZa9sgK/3CVlhOL/dDRz8BzyYqzEGQIaUx2sCf3AVui7BxQsh8MrHIRipIAQ4+HHPsEBiAGTQCVqzVo0QGIGr2IvZML3+iaYUBDj4DXeFrBsYABmWHCHwtMvrMgWBS2rqHH86wMGf4R0uycUzAJIUrDPVtYD2jNvrpg9w7hHN/8anYRiBEPjSodcEOPgTez+XpQyALKkfCoSe8/g8lbg6IQTeJAi8XAdf7hVeOsDF2Ctx8FvTXwyALPol6A8+bwYCaz+jnoBznhOgl6Twq7uzuKMlsSoGQBJipaNqDAS+Ey2PIPDg1p2iKrawad/tgZvWbTHz1mR6bz+/ujvLXmUAZFlwWh1BoMB75AU4LoQAPTaMdWydXsM7HCaec1A2+HPtXAZArj3A6ycFeD8kFXKQWfgciI7XAc4NBz57FlfdHbNhsuPXeuIb89Mfu+CQrl3ii+OnL6hbWre67KqybvEGns6sAgyAzOrbYekU/HgKUI0GYfAPObIAru3XE6vZO7m6HwR3De4P+Xn0HSJhWy5kCAj1yYiRAZARWRMv1OPznBsN/oMS12grpeBfXXESHNzFGe65sMfRcP/QE4C+QNzWQsP/FyIE1qjSEzBUIYsGZ+xhWRSss6tye93nmwn+oUcVwOozy8Cu3+wz0ucihMB95iBApwMMASMh01zOAEizoIkW5/K6LgwFQn9Am/DIPwzPl1dXYPDLz5lxUfZLDAHr+YwBkGGfuApdlVpAW42rEV7gouBfdcZJZi6Y4aLsmxgC1vIdAyCD/ogEf7P2FK6Cgx9F0BNDAEDXItdDBkCGPFDg84zQ2oK/q2gVFUe74Sns9pu4VSZajO1sDAFruIwBkAE/FHg9l4T9wZW4aGHwn4nBv+J051ztx/YmlRgCScmVkcoMgDTLWuB1jwwHgitwscKnXyj4lysc/KhPJDEEIjLk7B8DII3Suwvdl4UDoSdwkcLg/9nRHlD5yI/6tEuqQaBd43M8wQBIkwNcPtfYULM8+Onx3hVnDILuDnnIJ03yAUMgXUomtxwGQHJ6JaxNwa/5tUfQKNTzl4VHwmM/HQgH5Qur4WLUTAyB7Pud98QUNXd5XeOiwS982J2C/1EOfqnaDAGpRGmtwABIQc6CQs94LaAtw0UIg/8c34/5yI8imU0XOfixYbMaZKseA6CTShf43NeGm4NLcHZh8P8ag39Z+QDoxt1+lMp8YgiY1yqVmgyATqgXCX5/6H6cVRr8D2Pwd80XVsPFcEqkAEMgkSrpLWMAJKknB3+SgqVYnSGQooCS2RkAEoFiza5C1w1hf+gBLBMe0un378uGDQA+8qNSaUhOgUAapEj7IhgAJiWl4Neatbtl1Sn4Hxh6gpk34MgWxfYYBRgCMWKkcZQBYEJMvM9/Iwe/CaEyXIUhkH6BGQASTV0+zyTNr90lqQYX9zwG+MgvUyl1O0MgdQ1jl8AAiFUjbrzA656q+YML44o7TA7vVQiLTz2eu/0dlMlMQZIQsMTbhjOjROpLZQAYaOj2uaeHA6HbDczfF4/s7YVFNg3+VmyFXb9BSBAwqTu9aJQhgL5OlBgACVRxeV0zQ/7QvASmdkUU/HcN6Q/CWwLt5rDGxL6WVpi3aTsUV78EvTCX/+/rYMevENFp172of765V44/xW8b7rj/MQDiNKHg1wLa7LjiDpOjirxgx+Dfi8E/7vVNsLh+J3wR/QJx4xdfwahXN8KaHc0d2mn1guF4+mXyleMX1fHHRzq4kwEQI4nL65ltJvjHFPtg4WD7Hfkp+K/A4P9r4NOYVreNtrS2wvVrt8CqpkBbgY3+X2T+twM5OR2wspQMgKh3XIWeOVogODM6aTgY28cHC04ptV23XxT8emMJApPermcI6IIoMGQAoJMLfO5btebgLTgqTBT8t5/szODXG84Q0JVQY8gAAJgf9od+L3P3+JLjYL7Dg1/XgCGgK+H8oeoAWIAunoJZmK7uexzMLesrrGNFo5luv9F2MwSMlEmu3Oq1VQYAPeBzs8xB1/TrAXNOUiv4dU10CKzkC4O6JI4bqggAum1/L3pyEmZhug6Df/agEmEdKxqTOPK34PbXYjZMBIHJeGHQrhCgh4W6mHtOQMmHhVQDgB78Ew33+KhhYv+eMMvhwe8udI+pwD9s8hrMhokgMGndFnh0+4eGdaxqoIeFTH6VWMlbhCoBQA/+CbKdlYJ/+oA+smqWsydz5KfgDzWHVtbU1OxDBlyGjRFCgB4b/v36rbaEQK6eE0BNLZ9UAQAF/2L0hjT4bzi+F6gS/KhHJMVA4MlIgcE/hoCBMDYudj4AqoDaSC/v/K3MTzcd3xumnVgsq2Y5e2eO/PGNIAhUVlaOxnL6piEOEicdAo802O90gHsCHX1KwdGx1CklFPxV8CA2ZzxmYZp8Qm+YcmKRsI4VjekIfr1d1dXV+xECl+O0FALT67bCMoYASmXv5FwAtAX/Q+geafBT4E8+Qe3gR50iKRkIzGAIRDRL9M8uZc4EwIHgv1LmiKl41Keuv6ye1ezpPPLHty1ZCDy0bVf8Iiw/zacDbS5yHACwC9sFquAxAJAG/4yBxXAjnvdjXVulTAa/LkQMBJbrZYmGdE1g5oYGeGDrzkRmS5cxBCBygczSTkpm4yj4ccd9HOehi1k4ME6zBvWBCaW9jCtY1JKN4NebjlrSNYFxOC2EANph9sbtDAESwmbZMT2AmOCne9pCN1DwX9evp7COFY3ZDH69/QQBqIKxALAMszAxBNrksdN/RwCgoqKiK+6odJQSBn8eembOSSXAwY9CJJOqoAWq4GpgCKAE4KgnBm0PAAp+vIdNt60uJe8YZQr+eWX94Oq+PYyqWLY8F0f+DmIwBGIlcQwEbA2AaPDT02vDY70TP07BfysG/5Ulx8abLD9tieDXVUoSAovrd+hz2mZ4kWKvF7MtAOgNr3jkfwr3rIsxGyZ6Y+z8k/vBFbYM/hYweodfXIP3F3jdo+nZ/rjy9E8egMBS2cLnbWoEu0KAfkVI+46kjR16ApL6ljPbFgB1S+vuRzUrMRsmcuAdGPyX97HjkZ+CfzMkeoFnXIMx+D2jwoHQqrjyzE22QeAaXIFjIUC/IkzileOLUAtbJlsCoGhIkRfVFt7np+C/85RSGFXsw6r2Sntbkg3+IPWEstvIAxB4WLZiu/YE6JXjJiEwvqS85BiZDla02xIAeXl5fVFMOrXHQeI0ro8PRkY4kdhu1dLkgt89JhzIQfDr4hEEAKgnQI9c66UJhwSBu997P6HNyoUEgev7S28Z5+/bC7RPWrkpCbfNlgBozW+VPna2sqkZaj4KJmy0VQuTC/4sd/uNRWuFKrgOAOgXlzgwTvPfaQK7QWCz9i94dLvfuFFRS35Ly67oqK0GtgRA0xtNdCh5RqT0t/v3w6hXN9kGAskHfw6P/PHCt/UECAL0y8t4a7tpgsBdNukJ1H/+b7j45Tr415697dqQYOKZxvWN9rvlgQ2xJQBwu6H83HL62errNG6UdQi8bPGewN6WVrzab+qCX0uB1zM6p91+I7EBWtFE71ygi7M4apwWYE9g4btNxhUsYGn64iu46J/rIfydNPjXlVZWjLHAJndqE2wLgNrna/+Nwv8KW/0aZsPUBoGNYFUItAX/JjNX+1voNV4Y/PTcg2F7c2wgCEzAbViMWZgWvvs+3P5Oo7BOrowffPkNXPDS2xD8do9sEzYMPK/il/XVNV/KKlrVblsAkKAkPELgP3FcCIHv9rfg6YD1IJBs8GflPj+KmWIiCFyPy5DeGrvnvR2Wg4D/q2/gvJfWwcfffIdNEKb3Bp8/+OxNf6r5nGrZNdsaACS6XSHg0OAnl1AmCNyAI6YgcNtma/QEdn/9baTb3/zVt7jpwrRtyIghP1/33LqQsJYNjLYHAGlsNwg4PPjJJZQJAtQTuJMmRPneLTvg1s3bRVUybvsMu/uVeM6/899fy9a1fdDw8rPWrl77iayiHeyOAAAJbRcIKBL85BI9T8YRKQQWbdmZMwiEvtsTOfI34oU/3FZR2llWWf6LjWtqd4sq2cnmGACQ6FaHgILBT26hbFkIfI63+H6Dt/q24i0/2lBBDgyuHHxWXXVth9chC+axvMlRACC1rQoBhYOf3ELZNATmbsrO6cCXe/cBBf872he0faL8ca/Bfc9aV71up6iSHW2OAwA5wWoQ4OAnr0QyQWBBZEzw7776nTBrY4OgRuqmr/fthxE1G2Bj6F+yhQVdx7rO2rFuW3aoJNuaNNsdCQDSyCoQ4OAnb7TLU3FKCoElW3dlDALf4m3hka9sgLWfhXFThCl8ROFRP9c+1OqFtWxsdCwAyCe5hgAHP3khYZ5a4HPfltASUxiBwIb09gTomZDLX9sIr3+ixawp4egXHp/n7M+bP92c0BottPvA0QAg5+QKAhz8pL5xDvtD012F7nnGNdosS7btgpkbtrVNpPiffHJl7WZ4abf0R2Jfuo5x/SroD65PcZWWn93xACAPZBsCtKOZfJNP5PFemzzhR1KmNWvNoVvMQOChbR/ALXWpQaCltRWuwuB/IfCprA3feLyeX2u7tTdkFZ1gVwIA5KhsQYCDn9Q2nyMQ8HrmyOZ4uKHzEKDg/92b78Jf/NJnd75z+VznBQPBGtn2OMWuDADIYZmGAAc/qZx81gLBWS6TEKCPkiazhsjjiGu3QPWuj2Sz7Sko9Fyo+bUXZRV1uxOGSgGAHJYpCHDwk7qdz2YhsKzhQ5i6vj7y22Mza7t5XT2s2dEsq7rP7XWPCDcH/yKr6DS7cgAgByYLgZd2f0azGWYOfkNpkjJEITBbNtNj2/0wzQQEZuB1g+VN0rf5tBT4PKNCgdCzsvU60a4kAMiRyUBgzGub8MpxYghw8JOa6csIgSq3zz1DtkQZBOZt2g5L8bqBZDmt7kL32LA/uFpSz7FmZQFAHk0VAhz8pGL6c8gfutUsBKa83fF0gN44tLh+p2zDWvGc/xq8A0OflJPV7WB3SoHSACAndhYCHPykXuZyBAKF7umyNTzR6IdYCNBjxGbeOejyum7Ac37pK81l67e7XXkAkANjICB8xyA9RUanAy82fwYm7/PvL8jWF3uoIQ7LeHS+zUxPQHUEFwIAAAPSSURBVIfAw9s+gLnY9ZfJgD6ZogU06ctKZMtxgp0BEPUiQaD83HJTrxej58hNfLGnpSDyAs8sfrEn2hYnDZLpCdxi4olBl881MxwI3eEkjVJpCwMgRr3oi0alEIiZxWg08oRfOBC08gs8jbbdcuXUE8Cj9rRUNwxv9S3Q/NrcVJfjpPkZAHHepJ5A9EWjwtOBuNliJ7nbH6tGmsbDgdD8FCFwL97qo18ipmmLnLEYBkACP0YhIH3leIJZ6ch/Oe6s2ftQZ4KNcGoR6jrf5fPQOwWSbeISnOFGzJziFGAAxAmiT0YhkMzpAAX/GOyurtSXwcP0K6D5g3fiefxNSSx5OVQBfbCEngoG/muvAAOgvR7tpggCeGHwHCx8DbMo0QW/URz8IonSZ8Pz+LuxJzDJxBKfrKysHAdV0AJp+nPaYhgAEo+auDAYOfKH+YKfRMn0mrEncJer0CXq1j9TUVExprq6en961+yspTEATPiTegLRC4PxPxPdgxemRvOR34SIGaiiNWv3uLyu63HR8Uf4Z8uuKhtRU1OzD22cBAowAATixJoIAnhE+UXx0OJLsZw+gDm3pLzkxHCA7/OjHjlLWkBbVHxacRluwALMi4tOLflvHF5Ut7RO+lVPrKd8YgAksQvQEaXxzcancJbfYZ7ZUNvQgENOOVag8Y3GTbgJdItvYtNbDc/jeCvmtCcnLpAB4ESvcptYAZMKMABMCsXVWAEnKsAAcKJXuU2sgEkFGAAmheJqaivg1NYzAJzqWW4XK2BCAQaACZG4CivgVAUYAE71LLeLFTChAAPAhEhcRW0FnNx6BoCTvcttYwUkCjAAJAKxmRVwsgIMACd7l9vGCkgUYABIBGKz2go4vfUMAKd7mNvHCggUYAAIxGETK+B0BRgATvcwt48VECjAABCIwya1FVCh9QwAFbzMbWQFDBRgABgIw8WsgAoKMABU8DK3kRUwUIABYCAMF6utgCqtZwCo4mluJyuQQAEGQAJRuIgVUEUBBoAqnuZ2sgIJFGAAJBCFi9RWQKXWMwBU8ja3lRWIU4ABECcIT7ICKinAAFDJ29xWViBOAQZAnCA8qbYCqrWeAaCax7m9rECMAgyAGDF4lBVQTQEGgGoe5/ayAjEKMABixOBRtRVQsfUMABW9zm1mBaIKMACiQvCAFVBRAQaAil7nNrMCUQUYAFEheKC2Aqq2ngGgque53awAKsAAQBE4sQKqKsAAUNXz3G5WABVgAKAInNRWQOXWMwBU9j63XXkFGADK7wIsgMoKMABU9j63XXkFGADK7wJqC6B66/8fAAD//+oZd/wAAAAGSURBVAMAPNcb8efVBtIAAAAASUVORK5CYII=;" vertex="1" parent="qedjNLaac3IVLXvKGgUS-1">
          <mxGeometry x="160" y="53" width="30" height="30" as="geometry" />
        </mxCell>
        <mxCell id="qedjNLaac3IVLXvKGgUS-5" value="" style="endArrow=classic;html=1;rounded=0;strokeWidth=2;strokeColor=#4D4D4D;" edge="1" parent="qedjNLaac3IVLXvKGgUS-0">
          <mxGeometry width="50" height="50" relative="1" as="geometry">
            <mxPoint x="30.900000000000006" y="90" as="sourcePoint" />
            <mxPoint x="30.900000000000006" y="120" as="targetPoint" />
          </mxGeometry>
        </mxCell>
      </root>
    </mxGraphModel>
  </diagram>
  <diagram name="paso_2" id="SWWw3ucKQoDqdXzZZvY-">
    <mxGraphModel dx="1370" dy="843" grid="1" gridSize="10" guides="1" tooltips="1" connect="1" arrows="1" fold="1" page="1" pageScale="1" pageWidth="850" pageHeight="1100" math="0" shadow="0">
      <root>
        <mxCell id="WDAo1a8N6Kr8Ty2sJxIG-0" />
        <mxCell id="WDAo1a8N6Kr8Ty2sJxIG-1" parent="WDAo1a8N6Kr8Ty2sJxIG-0" />
        <mxCell id="WDAo1a8N6Kr8Ty2sJxIG-2" value="&lt;span style=&quot;color: rgb(77, 77, 77); font-family: &amp;quot;Cascadia Code&amp;quot;;&quot;&gt;&lt;font style=&quot;font-size: 18px;&quot;&gt;&quot;Bruno&quot;&lt;/font&gt;&lt;/span&gt;" style="rounded=0;whiteSpace=wrap;html=1;strokeWidth=1;fillColor=#DFEAF2;" parent="WDAo1a8N6Kr8Ty2sJxIG-1" vertex="1">
          <mxGeometry x="285" y="305" width="120" height="70" as="geometry" />
        </mxCell>
        <mxCell id="WDAo1a8N6Kr8Ty2sJxIG-3" value="&lt;span style=&quot;color: rgb(77, 77, 77); font-family: &amp;quot;Cascadia Code&amp;quot;;&quot;&gt;&lt;font style=&quot;font-size: 18px;&quot;&gt;&quot;Carla&quot;&lt;/font&gt;&lt;/span&gt;" style="rounded=0;whiteSpace=wrap;html=1;strokeWidth=1;fillColor=#DFEAF2;" parent="WDAo1a8N6Kr8Ty2sJxIG-1" vertex="1">
          <mxGeometry x="405" y="305" width="120" height="70" as="geometry" />
        </mxCell>
        <mxCell id="WDAo1a8N6Kr8Ty2sJxIG-4" value="&lt;span style=&quot;color: rgb(77, 77, 77); font-family: &amp;quot;Cascadia Code&amp;quot;;&quot;&gt;&lt;font style=&quot;font-size: 18px;&quot;&gt;&quot;Diego&quot;&lt;/font&gt;&lt;/span&gt;" style="rounded=0;whiteSpace=wrap;html=1;strokeWidth=1;fillColor=#DFEAF2;" parent="WDAo1a8N6Kr8Ty2sJxIG-1" vertex="1">
          <mxGeometry x="525" y="305" width="120" height="70" as="geometry" />
        </mxCell>
        <mxCell id="WDAo1a8N6Kr8Ty2sJxIG-5" value="&lt;span style=&quot;color: rgb(77, 77, 77); font-family: &amp;quot;Cascadia Code&amp;quot;;&quot;&gt;&lt;font style=&quot;font-size: 18px;&quot;&gt;&quot;Elena&quot;&lt;/font&gt;&lt;/span&gt;" style="rounded=0;whiteSpace=wrap;html=1;strokeWidth=1;fillColor=#DFEAF2;" parent="WDAo1a8N6Kr8Ty2sJxIG-1" vertex="1">
          <mxGeometry x="645" y="305" width="120" height="70" as="geometry" />
        </mxCell>
        <mxCell id="WDAo1a8N6Kr8Ty2sJxIG-6" value="&lt;span style=&quot;color: rgb(77, 77, 77); font-family: &amp;quot;Cascadia Code&amp;quot;;&quot;&gt;&lt;font style=&quot;font-size: 18px;&quot;&gt;&quot;Ana&quot;&lt;/font&gt;&lt;/span&gt;" style="rounded=0;whiteSpace=wrap;html=1;strokeWidth=1;fillColor=#DFEAF2;" parent="WDAo1a8N6Kr8Ty2sJxIG-1" vertex="1">
          <mxGeometry x="165" y="305" width="120" height="70" as="geometry" />
        </mxCell>
        <mxCell id="ZI57USIRZBK16AYaPU7C-0" value="" style="group" vertex="1" connectable="0" parent="WDAo1a8N6Kr8Ty2sJxIG-1">
          <mxGeometry x="430" y="180" width="200" height="120" as="geometry" />
        </mxCell>
        <mxCell id="ZI57USIRZBK16AYaPU7C-1" value="" style="group" vertex="1" connectable="0" parent="ZI57USIRZBK16AYaPU7C-0">
          <mxGeometry width="200" height="100" as="geometry" />
        </mxCell>
        <mxCell id="ZI57USIRZBK16AYaPU7C-2" value="&lt;font style=&quot;font-size: 32px;&quot;&gt;🕵🏻&lt;/font&gt;" style="text;html=1;align=center;verticalAlign=middle;whiteSpace=wrap;rounded=0;" vertex="1" parent="ZI57USIRZBK16AYaPU7C-1">
          <mxGeometry y="40" width="70" height="60" as="geometry" />
        </mxCell>
        <mxCell id="ZI57USIRZBK16AYaPU7C-3" value="&lt;font style=&quot;color: rgb(77, 77, 77);&quot;&gt;&lt;span style=&quot;font-family: &amp;quot;Cascadia Code&amp;quot;; font-size: 18px;&quot;&gt;¿&lt;/span&gt;&lt;font style=&quot;font-family: &amp;quot;Cascadia Code&amp;quot;; font-size: 18px; color: rgb(77, 77, 77);&quot;&gt;&quot;Francisco&quot;&lt;/font&gt;&lt;span style=&quot;font-family: &amp;quot;Cascadia Code&amp;quot;; font-size: 18px;&quot;&gt;?&lt;/span&gt;&lt;/font&gt;" style="whiteSpace=wrap;html=1;shape=mxgraph.basic.roundRectCallout;dx=30;dy=15;size=5;boundedLbl=1;" vertex="1" parent="ZI57USIRZBK16AYaPU7C-1">
          <mxGeometry x="40" width="160" height="60" as="geometry" />
        </mxCell>
        <mxCell id="ZI57USIRZBK16AYaPU7C-4" value="" style="shape=image;verticalLabelPosition=bottom;labelBackgroundColor=default;verticalAlign=top;aspect=fixed;imageAspect=0;image=data:image/png,iVBORw0KGgoAAAANSUhEUgAAAQAAAAEACAYAAABccqhmAAAQAElEQVR4AeydCXxU1b3H/wkgVq01M6OtZkZZEgJBBYyCGKqxtvb1+epziwVFQFBxacEFBApCWFQQN3BBwY1FoY1Ln319tbbWuEQFCYtKICQCOhPcZu5Y68qSvP9/Mlcmk7nn3Mls997zz+ec3HvP/9zl/P73/73nLnNvPvAfK8AKKKsAA0BZ13PDWQEABgDvBayAwgowABR2PjddbQWo9QwAUoEzK6CoAgwARR3PzWYFSAEGAKnAmRVQVAEGgKKO52arrYDeegaArgQPWQEFFWAAKOh0bjIroCvAANCV4CEroKACDAAFnc5NVluB2NYzAGLV4HFWQDEFGACKOZybywrEKsAAiFWDx1kBxRRgACjmcG6u2grEt54BEK8IT7MCCinAAFDI2dxUViBeAQZAvCI8zQoopAADQCFnc1PVViBR6xkAiVThMlZAEQUYAIo4mpvJCiRSgAGQSBUuYwUUUYABoIijuZlqK2DUegaAkTJczgoooAADQAEncxNZASMFGABGynA5K6CAAgwABZzMTVRbAVHrGQAiddjGCjhcAQaAwx3MzWMFRAowAETqsI0VcLgCDACHO5ibp7YCstYzAGQKsZ0VcLACDAAHO5ebxgrIFGAAyBRiOyvgYAUYAA52LjdNbQXMtJ4BYEYlrsMKOFQBBoBDHcvNYgXMKMAAMKMS12EFHKoAA8ChjuVmqa2A2dYzAMwqxfVYAQcqwABwoFO5SayAWQUYAGaV4nqsgAMVYAA40KncJLUVSKb1DIBk1OK6rIDDFGAAJOHQioqKrsVDiy/BWe7DPKekvKQEh5xyrEDR0KJBuAnzMS8qOrXkXBzmYeZkQgEGgAmRqEppZcVhNTU1/2h8s/FJnP4t5lsaahs2F3g9BASc5JQLBVxe18SmN5vW47qnYJ7Q9FbD/+BwTdlVZd1wyEmiAANAIhCZKfjrq2v+iuNnYI5N3cOB4Ep3ofuy2EIez44CLp/rRi2g3Ytri9+PL65bWvck9djQplRKtrHxwiU7v+Prl59b/sNo8A8zaGx+qDn0RIHXc6mBnYszoIDL57lJ82t3CRZdiT22xysrK7sI6ihvYgAIdgE68tc+X/t/WMUo+NEUSfnhQHAF9wQiWmT8Hwb/JM0fvNPEikZWV1cvhSrg/RwS/7EwiXUBCn7JkT9+zkhPgCEQL0t6pwu87qkY/AuTWOpYqAK6aMsXBqHjHwOgoyZ68L+AJtmRH6u0SwSBx3EnHdmulCfSogDqOjUcCN3eiYVdi/OIThfQbP/UmRYwAOJUiznyl8eZzE52wZ10OfcEzMplrh7qOQ117Uzw6yu4ocDnvk2f4GGbAgyANh0i/01c8IvUM/GPegJ8YdCEUGaquH3u6XihNeXgDftD03BZM8ysU5U6DICop+nIb+aCX/cu+bDyjEHwK+9R0TkNB3xh0FAa8wYM2Okhf2iebI4xxT6Ye1JfWTXAZc3FUwl6ZkBaV4UKDAD0MgW/mQt+FPwrTh8Evyw8Ch4ZNtAUBPDI9QR2X/k5AdQ52ZRM8C84pRTG9z0OZgwslq4GTyXmu7yuidKKNqrQ2U1VHgDJBv+ZR3siWnfLz2MIRJTIzD+zwT+2jw8o+PVL/BNKe8FNx/eWbpQW0O4pKPSMl1Z0eAWlAdDZ4Nf3CYaArkR6hy6vpwq76tJuPwX/7SeXgh78+lZMObEIJpT21CeNhnnh5uAS7J2NNqqgQrmyAEg1+PWdgyGgK5GeIQb/bC0QnCVb2rg+x0Ki4NfnmzGwD1xVcpw+aTTMw1O0xwp8nhFGFZxeriQA0hX8+s7BENCVSG0YDf6ZsqVcWULB36/DkT9+vnllfWF0kS++OH46P+wPrnB73RfEG+wyncp2KgeAdAe/Lj5DQFeic0OzwT8ej+q3lvUzvZI7BpfC8F6FsvpdQ4HQarwmcI6sotPsSgEgU8Gv7xQMAV2J5IauQvdc7PZLj/wU/HPxqJ7M0un6wL1D+kNlj6Nlsx2E1wSecflcZ8sqOsmuDAAyHfz6TsEQ0JUwN4wEf3NI+nDONX17QLLBr29Bfl4e3Df0BDjH92O9yGjYXfNrf/J4PRVGFZxWrgQAshX8+s7BENCVkA7nayaDf/ZJqb18iSCwtHwAnF14pGyjfhAMBP/sKnQNlVW0gj3VbXA8ALId/LpDGAK6EoZDeoWX9Im8a/r1gFSDX98C8smjwwbCGT9x60VGw8O0Zu0Fj89zslEFp5Q7GgC5Cn5956Adjp8Y1NVoN1yAU9Lgv5aCf1BqR35cT7tET3OuPOMkOO2ognblCSYOD/qDLx5ReNSABDbHFDkWALkOfn0PYQjoSnw/pN/y3/z9lMHIxP49oSrNwa+v6uAu+fBURRmc4jlCLzIaFnze/Ok/XMe6So0q2L3ckQAoraw4LJln+/XHezPlTIbA98pS8E/6fspghIJ/+oA+Btb0FB/StQv84cwyGOT+kWyBHu1D7aXeQ3sXySpm256O9TkOAFYLft1JDAGwTPDrPjmsW9cIBE50Ha4XGQ1/8v6b77986vBTexhVsGu5owBg1eDXdw6FIWC54Nd9csRB3SIQ6HfED/Uio6H3rTVv/bOssvxYowp2LHcMAKwe/PrOoRgE8rDd9Npuabf/huN7Qaa7/bgtCZO7+0Hw9M9OhuLDD01ojynsWVdd+/dBw8uPiSmz9agjAGCX4Nf3FEUgoAf/RL3dRkMK/mknyn/HbzR/OsqPPPggqEYI9PzhIbLF9dm4pvbvp51/mvSNMLIFpWJP17y2B4Ddgl93nMMhoAf/BL29RkMrBL++bccccnCkJ1B46MF6kdGw9I3n3vjb4PMHSx8oMFqAVcptDQC7Br/ufIdCwHTwTz6hN+T6yK/7Qh/6Dv0BPHfWKfCTH3TXi4yGA9c9t+6vA8+rOMKogh3KbQuAcvkXeyL6H9ylC6w8fRBk+lZfZGWd+KdD4D9MvGMwZP0vEFHwL0YZpEf+KScWweQTrHlnrcdhh8CzCAEPnhZgW0TplE1/qnmBDkSiSla22RYAtc/XPo7CDsNsmCj4V50xCCqir/EyrJhjA0Hg0WEDwAwEwoHg8gKvBT9I2vb1nftRSvpwKg6M01QMfjOv7TJeQuYtRXhBkC4MFnSXfmN0SH11zROZ36IDa0jnmC0BUHRaEb307UKREHrwny5/7lu0mKzZuuXng0kIdEEIrLAUBCj4q+BBFIs+wIED40TBf6OJd/YZLyF7llK8NfjHM8vgR3irULLWC4tPLu4lqWNJsy0BkNeSJ33h26giL9gl+PU9Q4eAiVeORyHgHqnPm7PhgeCXvmDz9wOKwS7Br+s5wPUjuLxY+lYhaOmSf5w+j52GtgRAa2vrNhS5FbNhemT7h7CqKWBot6qBIPCIudMBhEDkq8SX5KwtSQT/jIHFcH1/+x0k1+xohsX1O2USt3TtCg2ySla02xIATWsjkb1MJGhLaytMerseVjT6RdUsaSMIWP50oC34H0IBpUd+Cn56XTfWtVWi4L9+7RagfUmy4Q831DbsltRJizndC7ElAEiEsqvK6GJTNY0bZXLczeu3wuPYGzCqY9VyHQKWPB04EPxXyvRTIPifwX1R+rCTTKdc2W0LgLqldXsrKiqo+/tHkXgEgakIgUcaPhRVs6SNIGDyfQJ0OrDcXei+LOMNSSL4Zw3qAw4/8lPwj6B9MeO6Z2gFtgUA6VFTU7MPIXApjq/BbJjoYsH0uq2wzJYQsNAXiJIM/uv6Sa/VGvosV4Ykuv22D37S2NYAoAZEIUBHvidp2igTBGYgBB7atsuoimXL6TkBkz2ByFeJM9ETqKys7AJVQNddpN1+OvJz8EPa/zKxQNsDgEQhCOAOSp94WknTRpkgMHNDAzywVXpV12gROSvPJQRQ2y7V1dWPYuPHYhYmDn6hPJYzOgIApCruoPtxR70cx1dgFqbZG7czBIQKHTCipnrwE2APGBKMcfAnEMXiRY4BAOkchQAdpZbTtCgTBBbX7xBVsaQtmz2BaPDTI9fC4KcfANDXerjbb8ldRrhRjgIAtZQgAFVAEKDzVRD9zdvUCHe/976oiiVt2YBATPDT9RVDHSj455X1A/pen2ElixrsdMEvUxI6DgARoaqgBargaoDIRSscGKf57zTBXQyBdgJx8LeTwxFX+9u1KGbCmQCgBh6AwMM0KcoLEAIL320SVbGkLRM9gWSCn7r9fOS35K5heqOcCwCSoA0C9Au1JTQpygvffR9uf6dRVMWStnRCoKKioiueQtH1E2m3/7aT+8EVJcdaUhPRRnG3v706zgYAtZUgAHAdjtJv1XFgnO55b4eyEKDgx9updBuVHqwyFInO+Sn4x/Xh4DcUKc2GTC7O+QBoU68VBxMw09tqcGCcCAK3bt5uXMGillR6AjHBP1zUPA5+kTr2tKkCAPIOQeB6HJFCYNGWnaAKBKLBvwp1EQZ/fl4eLDylFPjIj0o5KKkEAHKbDoG7aUKUCQJzNtm1JzAATPyKkB4bfhy7/a+iDr/BbJgo+O/E4B9l4sUYhgvJkeGPO3eDyZ/0Ovpqv5H8qgGAdGjFfzdhvhOzMN1fvxNmbbDfex6S+RUhCjAUs2HSg39kkdewjlUNT+/6CCa+9Z6Z3/NbNvgzra2KANA1nYwjd2AWpiXbdsHMDduEdaxoTOKagOHm2z34f/fmu7C/lXhv2EQyKBv81HiVAUDtn4L/FmAWpoe2fQD0c2JhJQsaU4EAB78FHZqBTVIdACTpVFehex6NiDK9S2Dq+nqQHk9EC8mBrTMQ4ODPgaNytEoGAAqvNYduMQOBx7b7YdrbdoWAqQuDQMF/9+D+YMdzfrrg91sHdftx18x4YgBEJY5AwOuZE500HDzW6IcptoRAPsheKkLBf++Q/nBJ70LD9lvV8DRf8OuUaxgAMbJpgeAst889I6Yo4egTCIHJ67Y46nSgC97nX3Tq8TC8lz2Dny/4Qaf+GABxsoX8oVtdXtesuOIOkyuaAnDTWntC4NFhA2FCaU84vFvXSLuKDz8Ulp8+CH7T85jItJ3+0bP9Jrv9T5ddVWbrF3hmwi8MgASqagFtjpmewKr37QmBrvl5MGNgH2isPAt2YK79r2FwduGRCZSwdhGd8yfxkM8ldnp7b7aUZwAYKE09gQKve5qB+ftigsDEt94187DJ9/NYZYSe7T8s2guwyjaZ3Q4+5zerlLgeA0CgTzgQmu/yeeiBIUEtgDU7dsMEc0+cCZfDRnMKUPDzOb85rWS1GAAShTR/8E6Xz0WPDgtrUnf0OrwFRR8iEVZkY0oKcPCnJF+HmRkAHSTpWKD5tbtdha4bO1ralzyDt6IYAu01SeeUKsGfTs1ky2IAyBSK2rVm7R68O0A/JxY+DEgQuOaNd2Bfi7BadKk8MKsAB79ZpZKrxwBIQi8toC0q8Lnpo6TC6H7ug49hfO1mhkAS2oqqcvCL1EnNxgBIUr+wP/SgGQj82f8JQyBJbRNV5+BPpEr6BAOZ9wAAEABJREFUyhgAndAyCgF6z6CwJ8AQ6IS4MbOoGPwxzc/KKAOgkzIjBJYUFHquwdmlELgSTwf2trRgVU5mFeDgN6tUavUYACnoF24OPoy3CK/ARQgh8Bc8HRj72ibYwxBAqeSJg1+uUbpqMABSVFLza4+ZgcDfmj+DcQwBqdoc/FKJ0lqBAZAGOaMQGIeLEvbzCQLcE0CVDJLqwW8gS0aLGQBpkhch8HiB1z0aF7cfs2F6EXsCo17ZCN/uF7LCcH6nGjj4c+NZBkAadQ8HQqsKvB4pBP75URBGv7qBIRDVnoM/KkQOBgyANIseDgSfRAiMwsUKewIvfxSCUQwB4ODHPSWHiQGQAfERAk/hhcFLcdH7MBumGoTAZa9sgK/3CVlhOL/dDRz8BzyYqzEGQIaUx2sCf3AVui7BxQsh8MrHIRipIAQ4+HHPsEBiAGTQCVqzVo0QGIGr2IvZML3+iaYUBDj4DXeFrBsYABmWHCHwtMvrMgWBS2rqHH86wMGf4R0uycUzAJIUrDPVtYD2jNvrpg9w7hHN/8anYRiBEPjSodcEOPgTez+XpQyALKkfCoSe8/g8lbg6IQTeJAi8XAdf7hVeOsDF2Ctx8FvTXwyALPol6A8+bwYCaz+jnoBznhOgl6Twq7uzuKMlsSoGQBJipaNqDAS+Ey2PIPDg1p2iKrawad/tgZvWbTHz1mR6bz+/ujvLXmUAZFlwWh1BoMB75AU4LoQAPTaMdWydXsM7HCaec1A2+HPtXAZArj3A6ycFeD8kFXKQWfgciI7XAc4NBz57FlfdHbNhsuPXeuIb89Mfu+CQrl3ii+OnL6hbWre67KqybvEGns6sAgyAzOrbYekU/HgKUI0GYfAPObIAru3XE6vZO7m6HwR3De4P+Xn0HSJhWy5kCAj1yYiRAZARWRMv1OPznBsN/oMS12grpeBfXXESHNzFGe65sMfRcP/QE4C+QNzWQsP/FyIE1qjSEzBUIYsGZ+xhWRSss6tye93nmwn+oUcVwOozy8Cu3+wz0ucihMB95iBApwMMASMh01zOAEizoIkW5/K6LgwFQn9Am/DIPwzPl1dXYPDLz5lxUfZLDAHr+YwBkGGfuApdlVpAW42rEV7gouBfdcZJZi6Y4aLsmxgC1vIdAyCD/ogEf7P2FK6Cgx9F0BNDAEDXItdDBkCGPFDg84zQ2oK/q2gVFUe74Sns9pu4VSZajO1sDAFruIwBkAE/FHg9l4T9wZW4aGHwn4nBv+J051ztx/YmlRgCScmVkcoMgDTLWuB1jwwHgitwscKnXyj4lysc/KhPJDEEIjLk7B8DII3Suwvdl4UDoSdwkcLg/9nRHlD5yI/6tEuqQaBd43M8wQBIkwNcPtfYULM8+Onx3hVnDILuDnnIJ03yAUMgXUomtxwGQHJ6JaxNwa/5tUfQKNTzl4VHwmM/HQgH5Qur4WLUTAyB7Pud98QUNXd5XeOiwS982J2C/1EOfqnaDAGpRGmtwABIQc6CQs94LaAtw0UIg/8c34/5yI8imU0XOfixYbMaZKseA6CTShf43NeGm4NLcHZh8P8ag39Z+QDoxt1+lMp8YgiY1yqVmgyATqgXCX5/6H6cVRr8D2Pwd80XVsPFcEqkAEMgkSrpLWMAJKknB3+SgqVYnSGQooCS2RkAEoFiza5C1w1hf+gBLBMe0un378uGDQA+8qNSaUhOgUAapEj7IhgAJiWl4Neatbtl1Sn4Hxh6gpk34MgWxfYYBRgCMWKkcZQBYEJMvM9/Iwe/CaEyXIUhkH6BGQASTV0+zyTNr90lqQYX9zwG+MgvUyl1O0MgdQ1jl8AAiFUjbrzA656q+YML44o7TA7vVQiLTz2eu/0dlMlMQZIQsMTbhjOjROpLZQAYaOj2uaeHA6HbDczfF4/s7YVFNg3+VmyFXb9BSBAwqTu9aJQhgL5OlBgACVRxeV0zQ/7QvASmdkUU/HcN6Q/CWwLt5rDGxL6WVpi3aTsUV78EvTCX/+/rYMevENFp172of765V44/xW8b7rj/MQDiNKHg1wLa7LjiDpOjirxgx+Dfi8E/7vVNsLh+J3wR/QJx4xdfwahXN8KaHc0d2mn1guF4+mXyleMX1fHHRzq4kwEQI4nL65ltJvjHFPtg4WD7Hfkp+K/A4P9r4NOYVreNtrS2wvVrt8CqpkBbgY3+X2T+twM5OR2wspQMgKh3XIWeOVogODM6aTgY28cHC04ptV23XxT8emMJApPermcI6IIoMGQAoJMLfO5btebgLTgqTBT8t5/szODXG84Q0JVQY8gAAJgf9od+L3P3+JLjYL7Dg1/XgCGgK+H8oeoAWIAunoJZmK7uexzMLesrrGNFo5luv9F2MwSMlEmu3Oq1VQYAPeBzs8xB1/TrAXNOUiv4dU10CKzkC4O6JI4bqggAum1/L3pyEmZhug6Df/agEmEdKxqTOPK34PbXYjZMBIHJeGHQrhCgh4W6mHtOQMmHhVQDgB78Ew33+KhhYv+eMMvhwe8udI+pwD9s8hrMhokgMGndFnh0+4eGdaxqoIeFTH6VWMlbhCoBQA/+CbKdlYJ/+oA+smqWsydz5KfgDzWHVtbU1OxDBlyGjRFCgB4b/v36rbaEQK6eE0BNLZ9UAQAF/2L0hjT4bzi+F6gS/KhHJMVA4MlIgcE/hoCBMDYudj4AqoDaSC/v/K3MTzcd3xumnVgsq2Y5e2eO/PGNIAhUVlaOxnL6piEOEicdAo802O90gHsCHX1KwdGx1CklFPxV8CA2ZzxmYZp8Qm+YcmKRsI4VjekIfr1d1dXV+xECl+O0FALT67bCMoYASmXv5FwAtAX/Q+geafBT4E8+Qe3gR50iKRkIzGAIRDRL9M8uZc4EwIHgv1LmiKl41Keuv6ye1ezpPPLHty1ZCDy0bVf8Iiw/zacDbS5yHACwC9sFquAxAJAG/4yBxXAjnvdjXVulTAa/LkQMBJbrZYmGdE1g5oYGeGDrzkRmS5cxBCBygczSTkpm4yj4ccd9HOehi1k4ME6zBvWBCaW9jCtY1JKN4NebjlrSNYFxOC2EANph9sbtDAESwmbZMT2AmOCne9pCN1DwX9evp7COFY3ZDH69/QQBqIKxALAMszAxBNrksdN/RwCgoqKiK+6odJQSBn8eembOSSXAwY9CJJOqoAWq4GpgCKAE4KgnBm0PAAp+vIdNt60uJe8YZQr+eWX94Oq+PYyqWLY8F0f+DmIwBGIlcQwEbA2AaPDT02vDY70TP07BfysG/5Ulx8abLD9tieDXVUoSAovrd+hz2mZ4kWKvF7MtAOgNr3jkfwr3rIsxGyZ6Y+z8k/vBFbYM/hYweodfXIP3F3jdo+nZ/rjy9E8egMBS2cLnbWoEu0KAfkVI+46kjR16ApL6ljPbFgB1S+vuRzUrMRsmcuAdGPyX97HjkZ+CfzMkeoFnXIMx+D2jwoHQqrjyzE22QeAaXIFjIUC/IkzileOLUAtbJlsCoGhIkRfVFt7np+C/85RSGFXsw6r2Sntbkg3+IPWEstvIAxB4WLZiu/YE6JXjJiEwvqS85BiZDla02xIAeXl5fVFMOrXHQeI0ro8PRkY4kdhu1dLkgt89JhzIQfDr4hEEAKgnQI9c66UJhwSBu997P6HNyoUEgev7S28Z5+/bC7RPWrkpCbfNlgBozW+VPna2sqkZaj4KJmy0VQuTC/4sd/uNRWuFKrgOAOgXlzgwTvPfaQK7QWCz9i94dLvfuFFRS35Ly67oqK0GtgRA0xtNdCh5RqT0t/v3w6hXN9kGAskHfw6P/PHCt/UECAL0y8t4a7tpgsBdNukJ1H/+b7j45Tr415697dqQYOKZxvWN9rvlgQ2xJQBwu6H83HL62errNG6UdQi8bPGewN6WVrzab+qCX0uB1zM6p91+I7EBWtFE71ygi7M4apwWYE9g4btNxhUsYGn64iu46J/rIfydNPjXlVZWjLHAJndqE2wLgNrna/+Nwv8KW/0aZsPUBoGNYFUItAX/JjNX+1voNV4Y/PTcg2F7c2wgCEzAbViMWZgWvvs+3P5Oo7BOrowffPkNXPDS2xD8do9sEzYMPK/il/XVNV/KKlrVblsAkKAkPELgP3FcCIHv9rfg6YD1IJBs8GflPj+KmWIiCFyPy5DeGrvnvR2Wg4D/q2/gvJfWwcfffIdNEKb3Bp8/+OxNf6r5nGrZNdsaACS6XSHg0OAnl1AmCNyAI6YgcNtma/QEdn/9baTb3/zVt7jpwrRtyIghP1/33LqQsJYNjLYHAGlsNwg4PPjJJZQJAtQTuJMmRPneLTvg1s3bRVUybvsMu/uVeM6/899fy9a1fdDw8rPWrl77iayiHeyOAAAJbRcIKBL85BI9T8YRKQQWbdmZMwiEvtsTOfI34oU/3FZR2llWWf6LjWtqd4sq2cnmGACQ6FaHgILBT26hbFkIfI63+H6Dt/q24i0/2lBBDgyuHHxWXXVth9chC+axvMlRACC1rQoBhYOf3ELZNATmbsrO6cCXe/cBBf872he0faL8ca/Bfc9aV71up6iSHW2OAwA5wWoQ4OAnr0QyQWBBZEzw7776nTBrY4OgRuqmr/fthxE1G2Bj6F+yhQVdx7rO2rFuW3aoJNuaNNsdCQDSyCoQ4OAnb7TLU3FKCoElW3dlDALf4m3hka9sgLWfhXFThCl8ROFRP9c+1OqFtWxsdCwAyCe5hgAHP3khYZ5a4HPfltASUxiBwIb09gTomZDLX9sIr3+ixawp4egXHp/n7M+bP92c0BottPvA0QAg5+QKAhz8pL5xDvtD012F7nnGNdosS7btgpkbtrVNpPiffHJl7WZ4abf0R2Jfuo5x/SroD65PcZWWn93xACAPZBsCtKOZfJNP5PFemzzhR1KmNWvNoVvMQOChbR/ALXWpQaCltRWuwuB/IfCprA3feLyeX2u7tTdkFZ1gVwIA5KhsQYCDn9Q2nyMQ8HrmyOZ4uKHzEKDg/92b78Jf/NJnd75z+VznBQPBGtn2OMWuDADIYZmGAAc/qZx81gLBWS6TEKCPkiazhsjjiGu3QPWuj2Sz7Sko9Fyo+bUXZRV1uxOGSgGAHJYpCHDwk7qdz2YhsKzhQ5i6vj7y22Mza7t5XT2s2dEsq7rP7XWPCDcH/yKr6DS7cgAgByYLgZd2f0azGWYOfkNpkjJEITBbNtNj2/0wzQQEZuB1g+VN0rf5tBT4PKNCgdCzsvU60a4kAMiRyUBgzGub8MpxYghw8JOa6csIgSq3zz1DtkQZBOZt2g5L8bqBZDmt7kL32LA/uFpSz7FmZQFAHk0VAhz8pGL6c8gfutUsBKa83fF0gN44tLh+p2zDWvGc/xq8A0OflJPV7WB3SoHSACAndhYCHPykXuZyBAKF7umyNTzR6IdYCNBjxGbeOejyum7Ac37pK81l67e7XXkAkANjICB8xyA9RUanAy82fwYm7/PvL8jWF3uoIQ7LeHS+zUxPQHUEFwIAAAPSSURBVIfAw9s+gLnY9ZfJgD6ZogU06ctKZMtxgp0BEPUiQaD83HJTrxej58hNfLGnpSDyAs8sfrEn2hYnDZLpCdxi4olBl881MxwI3eEkjVJpCwMgRr3oi0alEIiZxWg08oRfOBC08gs8jbbdcuXUE8Cj9rRUNwxv9S3Q/NrcVJfjpPkZAHHepJ5A9EWjwtOBuNliJ7nbH6tGmsbDgdD8FCFwL97qo18ipmmLnLEYBkACP0YhIH3leIJZ6ch/Oe6s2ftQZ4KNcGoR6jrf5fPQOwWSbeISnOFGzJziFGAAxAmiT0YhkMzpAAX/GOyurtSXwcP0K6D5g3fiefxNSSx5OVQBfbCEngoG/muvAAOgvR7tpggCeGHwHCx8DbMo0QW/URz8IonSZ8Pz+LuxJzDJxBKfrKysHAdV0AJp+nPaYhgAEo+auDAYOfKH+YKfRMn0mrEncJer0CXq1j9TUVExprq6en961+yspTEATPiTegLRC4PxPxPdgxemRvOR34SIGaiiNWv3uLyu63HR8Uf4Z8uuKhtRU1OzD22cBAowAATixJoIAnhE+UXx0OJLsZw+gDm3pLzkxHCA7/OjHjlLWkBbVHxacRluwALMi4tOLflvHF5Ut7RO+lVPrKd8YgAksQvQEaXxzcancJbfYZ7ZUNvQgENOOVag8Y3GTbgJdItvYtNbDc/jeCvmtCcnLpAB4ESvcptYAZMKMABMCsXVWAEnKsAAcKJXuU2sgEkFGAAmheJqaivg1NYzAJzqWW4XK2BCAQaACZG4CivgVAUYAE71LLeLFTChAAPAhEhcRW0FnNx6BoCTvcttYwUkCjAAJAKxmRVwsgIMACd7l9vGCkgUYABIBGKz2go4vfUMAKd7mNvHCggUYAAIxGETK+B0BRgATvcwt48VECjAABCIwya1FVCh9QwAFbzMbWQFDBRgABgIw8WsgAoKMABU8DK3kRUwUIABYCAMF6utgCqtZwCo4mluJyuQQAEGQAJRuIgVUEUBBoAqnuZ2sgIJFGAAJBCFi9RWQKXWMwBU8ja3lRWIU4ABECcIT7ICKinAAFDJ29xWViBOAQZAnCA8qbYCqrWeAaCax7m9rECMAgyAGDF4lBVQTQEGgGoe5/ayAjEKMABixOBRtRVQsfUMABW9zm1mBaIKMACiQvCAFVBRAQaAil7nNrMCUQUYAFEheKC2Aqq2ngGgque53awAKsAAQBE4sQKqKsAAUNXz3G5WABVgAKAInNRWQOXWMwBU9j63XXkFGADK7wIsgMoKMABU9j63XXkFGADK7wJqC6B66/8fAAD//+oZd/wAAAAGSURBVAMAPNcb8efVBtIAAAAASUVORK5CYII=;" vertex="1" parent="ZI57USIRZBK16AYaPU7C-1">
          <mxGeometry x="160" y="53" width="30" height="30" as="geometry" />
        </mxCell>
        <mxCell id="ZI57USIRZBK16AYaPU7C-5" value="" style="endArrow=classic;html=1;rounded=0;strokeWidth=2;strokeColor=#4D4D4D;" edge="1" parent="ZI57USIRZBK16AYaPU7C-0">
          <mxGeometry width="50" height="50" relative="1" as="geometry">
            <mxPoint x="30.900000000000006" y="90" as="sourcePoint" />
            <mxPoint x="30.900000000000006" y="120" as="targetPoint" />
          </mxGeometry>
        </mxCell>
      </root>
    </mxGraphModel>
  </diagram>
  <diagram name="paso_3" id="0FQucdmnZp8ud4VcF1g1">
    <mxGraphModel dx="1370" dy="843" grid="1" gridSize="10" guides="1" tooltips="1" connect="1" arrows="1" fold="1" page="1" pageScale="1" pageWidth="850" pageHeight="1100" math="0" shadow="0">
      <root>
        <mxCell id="CV9W3y_TJrHzg_fdVCft-0" />
        <mxCell id="CV9W3y_TJrHzg_fdVCft-1" parent="CV9W3y_TJrHzg_fdVCft-0" />
        <mxCell id="CV9W3y_TJrHzg_fdVCft-2" value="&lt;span style=&quot;color: rgb(77, 77, 77); font-family: &amp;quot;Cascadia Code&amp;quot;;&quot;&gt;&lt;font style=&quot;font-size: 18px;&quot;&gt;&quot;Bruno&quot;&lt;/font&gt;&lt;/span&gt;" style="rounded=0;whiteSpace=wrap;html=1;strokeWidth=1;fillColor=#DFEAF2;" parent="CV9W3y_TJrHzg_fdVCft-1" vertex="1">
          <mxGeometry x="285" y="305" width="120" height="70" as="geometry" />
        </mxCell>
        <mxCell id="CV9W3y_TJrHzg_fdVCft-3" value="&lt;span style=&quot;color: rgb(77, 77, 77); font-family: &amp;quot;Cascadia Code&amp;quot;;&quot;&gt;&lt;font style=&quot;font-size: 18px;&quot;&gt;&quot;Carla&quot;&lt;/font&gt;&lt;/span&gt;" style="rounded=0;whiteSpace=wrap;html=1;strokeWidth=1;fillColor=#DFEAF2;" parent="CV9W3y_TJrHzg_fdVCft-1" vertex="1">
          <mxGeometry x="405" y="305" width="120" height="70" as="geometry" />
        </mxCell>
        <mxCell id="CV9W3y_TJrHzg_fdVCft-4" value="&lt;span style=&quot;color: rgb(77, 77, 77); font-family: &amp;quot;Cascadia Code&amp;quot;;&quot;&gt;&lt;font style=&quot;font-size: 18px;&quot;&gt;&quot;Diego&quot;&lt;/font&gt;&lt;/span&gt;" style="rounded=0;whiteSpace=wrap;html=1;strokeWidth=1;fillColor=#DFEAF2;" parent="CV9W3y_TJrHzg_fdVCft-1" vertex="1">
          <mxGeometry x="525" y="305" width="120" height="70" as="geometry" />
        </mxCell>
        <mxCell id="CV9W3y_TJrHzg_fdVCft-5" value="&lt;span style=&quot;color: rgb(77, 77, 77); font-family: &amp;quot;Cascadia Code&amp;quot;;&quot;&gt;&lt;font style=&quot;font-size: 18px;&quot;&gt;&quot;Elena&quot;&lt;/font&gt;&lt;/span&gt;" style="rounded=0;whiteSpace=wrap;html=1;strokeWidth=1;fillColor=#DFEAF2;" parent="CV9W3y_TJrHzg_fdVCft-1" vertex="1">
          <mxGeometry x="645" y="305" width="120" height="70" as="geometry" />
        </mxCell>
        <mxCell id="CV9W3y_TJrHzg_fdVCft-6" value="&lt;span style=&quot;color: rgb(77, 77, 77); font-family: &amp;quot;Cascadia Code&amp;quot;;&quot;&gt;&lt;font style=&quot;font-size: 18px;&quot;&gt;&quot;Ana&quot;&lt;/font&gt;&lt;/span&gt;" style="rounded=0;whiteSpace=wrap;html=1;strokeWidth=1;fillColor=#DFEAF2;" parent="CV9W3y_TJrHzg_fdVCft-1" vertex="1">
          <mxGeometry x="165" y="305" width="120" height="70" as="geometry" />
        </mxCell>
        <mxCell id="bbOC-xiMH83N-T7EL9Z--0" value="" style="group" vertex="1" connectable="0" parent="CV9W3y_TJrHzg_fdVCft-1">
          <mxGeometry x="550" y="180" width="200" height="120" as="geometry" />
        </mxCell>
        <mxCell id="bbOC-xiMH83N-T7EL9Z--1" value="" style="group" vertex="1" connectable="0" parent="bbOC-xiMH83N-T7EL9Z--0">
          <mxGeometry width="200" height="100" as="geometry" />
        </mxCell>
        <mxCell id="bbOC-xiMH83N-T7EL9Z--2" value="&lt;font style=&quot;font-size: 32px;&quot;&gt;🕵🏻&lt;/font&gt;" style="text;html=1;align=center;verticalAlign=middle;whiteSpace=wrap;rounded=0;" vertex="1" parent="bbOC-xiMH83N-T7EL9Z--1">
          <mxGeometry y="40" width="70" height="60" as="geometry" />
        </mxCell>
        <mxCell id="bbOC-xiMH83N-T7EL9Z--3" value="&lt;font style=&quot;color: rgb(77, 77, 77);&quot;&gt;&lt;span style=&quot;font-family: &amp;quot;Cascadia Code&amp;quot;; font-size: 18px;&quot;&gt;¿&lt;/span&gt;&lt;font style=&quot;font-family: &amp;quot;Cascadia Code&amp;quot;; font-size: 18px; color: rgb(77, 77, 77);&quot;&gt;&quot;Francisco&quot;&lt;/font&gt;&lt;span style=&quot;font-family: &amp;quot;Cascadia Code&amp;quot;; font-size: 18px;&quot;&gt;?&lt;/span&gt;&lt;/font&gt;" style="whiteSpace=wrap;html=1;shape=mxgraph.basic.roundRectCallout;dx=30;dy=15;size=5;boundedLbl=1;" vertex="1" parent="bbOC-xiMH83N-T7EL9Z--1">
          <mxGeometry x="40" width="160" height="60" as="geometry" />
        </mxCell>
        <mxCell id="bbOC-xiMH83N-T7EL9Z--4" value="" style="shape=image;verticalLabelPosition=bottom;labelBackgroundColor=default;verticalAlign=top;aspect=fixed;imageAspect=0;image=data:image/png,iVBORw0KGgoAAAANSUhEUgAAAQAAAAEACAYAAABccqhmAAAQAElEQVR4AeydCXxU1b3H/wkgVq01M6OtZkZZEgJBBYyCGKqxtvb1+epziwVFQFBxacEFBApCWFQQN3BBwY1FoY1Ln319tbbWuEQFCYtKICQCOhPcZu5Y68qSvP9/Mlcmk7nn3Mls997zz+ec3HvP/9zl/P73/73nLnNvPvAfK8AKKKsAA0BZ13PDWQEABgDvBayAwgowABR2PjddbQWo9QwAUoEzK6CoAgwARR3PzWYFSAEGAKnAmRVQVAEGgKKO52arrYDeegaArgQPWQEFFWAAKOh0bjIroCvAANCV4CEroKACDAAFnc5NVluB2NYzAGLV4HFWQDEFGACKOZybywrEKsAAiFWDx1kBxRRgACjmcG6u2grEt54BEK8IT7MCCinAAFDI2dxUViBeAQZAvCI8zQoopAADQCFnc1PVViBR6xkAiVThMlZAEQUYAIo4mpvJCiRSgAGQSBUuYwUUUYABoIijuZlqK2DUegaAkTJczgoooAADQAEncxNZASMFGABGynA5K6CAAgwABZzMTVRbAVHrGQAiddjGCjhcAQaAwx3MzWMFRAowAETqsI0VcLgCDACHO5ibp7YCstYzAGQKsZ0VcLACDAAHO5ebxgrIFGAAyBRiOyvgYAUYAA52LjdNbQXMtJ4BYEYlrsMKOFQBBoBDHcvNYgXMKMAAMKMS12EFHKoAA8ChjuVmqa2A2dYzAMwqxfVYAQcqwABwoFO5SayAWQUYAGaV4nqsgAMVYAA40KncJLUVSKb1DIBk1OK6rIDDFGAAJOHQioqKrsVDiy/BWe7DPKekvKQEh5xyrEDR0KJBuAnzMS8qOrXkXBzmYeZkQgEGgAmRqEppZcVhNTU1/2h8s/FJnP4t5lsaahs2F3g9BASc5JQLBVxe18SmN5vW47qnYJ7Q9FbD/+BwTdlVZd1wyEmiAANAIhCZKfjrq2v+iuNnYI5N3cOB4Ep3ofuy2EIez44CLp/rRi2g3Ytri9+PL65bWvck9djQplRKtrHxwiU7v+Prl59b/sNo8A8zaGx+qDn0RIHXc6mBnYszoIDL57lJ82t3CRZdiT22xysrK7sI6ihvYgAIdgE68tc+X/t/WMUo+NEUSfnhQHAF9wQiWmT8Hwb/JM0fvNPEikZWV1cvhSrg/RwS/7EwiXUBCn7JkT9+zkhPgCEQL0t6pwu87qkY/AuTWOpYqAK6aMsXBqHjHwOgoyZ68L+AJtmRH6u0SwSBx3EnHdmulCfSogDqOjUcCN3eiYVdi/OIThfQbP/UmRYwAOJUiznyl8eZzE52wZ10OfcEzMplrh7qOQ117Uzw6yu4ocDnvk2f4GGbAgyANh0i/01c8IvUM/GPegJ8YdCEUGaquH3u6XihNeXgDftD03BZM8ysU5U6DICop+nIb+aCX/cu+bDyjEHwK+9R0TkNB3xh0FAa8wYM2Okhf2iebI4xxT6Ye1JfWTXAZc3FUwl6ZkBaV4UKDAD0MgW/mQt+FPwrTh8Evyw8Ch4ZNtAUBPDI9QR2X/k5AdQ52ZRM8C84pRTG9z0OZgwslq4GTyXmu7yuidKKNqrQ2U1VHgDJBv+ZR3siWnfLz2MIRJTIzD+zwT+2jw8o+PVL/BNKe8FNx/eWbpQW0O4pKPSMl1Z0eAWlAdDZ4Nf3CYaArkR6hy6vpwq76tJuPwX/7SeXgh78+lZMObEIJpT21CeNhnnh5uAS7J2NNqqgQrmyAEg1+PWdgyGgK5GeIQb/bC0QnCVb2rg+x0Ki4NfnmzGwD1xVcpw+aTTMw1O0xwp8nhFGFZxeriQA0hX8+s7BENCVSG0YDf6ZsqVcWULB36/DkT9+vnllfWF0kS++OH46P+wPrnB73RfEG+wyncp2KgeAdAe/Lj5DQFeic0OzwT8ej+q3lvUzvZI7BpfC8F6FsvpdQ4HQarwmcI6sotPsSgEgU8Gv7xQMAV2J5IauQvdc7PZLj/wU/HPxqJ7M0un6wL1D+kNlj6Nlsx2E1wSecflcZ8sqOsmuDAAyHfz6TsEQ0JUwN4wEf3NI+nDONX17QLLBr29Bfl4e3Df0BDjH92O9yGjYXfNrf/J4PRVGFZxWrgQAshX8+s7BENCVkA7nayaDf/ZJqb18iSCwtHwAnF14pGyjfhAMBP/sKnQNlVW0gj3VbXA8ALId/LpDGAK6EoZDeoWX9Im8a/r1gFSDX98C8smjwwbCGT9x60VGw8O0Zu0Fj89zslEFp5Q7GgC5Cn5956Adjp8Y1NVoN1yAU9Lgv5aCf1BqR35cT7tET3OuPOMkOO2ognblCSYOD/qDLx5ReNSABDbHFDkWALkOfn0PYQjoSnw/pN/y3/z9lMHIxP49oSrNwa+v6uAu+fBURRmc4jlCLzIaFnze/Ok/XMe6So0q2L3ckQAoraw4LJln+/XHezPlTIbA98pS8E/6fspghIJ/+oA+Btb0FB/StQv84cwyGOT+kWyBHu1D7aXeQ3sXySpm256O9TkOAFYLft1JDAGwTPDrPjmsW9cIBE50Ha4XGQ1/8v6b77986vBTexhVsGu5owBg1eDXdw6FIWC54Nd9csRB3SIQ6HfED/Uio6H3rTVv/bOssvxYowp2LHcMAKwe/PrOoRgE8rDd9Npuabf/huN7Qaa7/bgtCZO7+0Hw9M9OhuLDD01ojynsWVdd+/dBw8uPiSmz9agjAGCX4Nf3FEUgoAf/RL3dRkMK/mknyn/HbzR/OsqPPPggqEYI9PzhIbLF9dm4pvbvp51/mvSNMLIFpWJP17y2B4Ddgl93nMMhoAf/BL29RkMrBL++bccccnCkJ1B46MF6kdGw9I3n3vjb4PMHSx8oMFqAVcptDQC7Br/ufIdCwHTwTz6hN+T6yK/7Qh/6Dv0BPHfWKfCTH3TXi4yGA9c9t+6vA8+rOMKogh3KbQuAcvkXeyL6H9ylC6w8fRBk+lZfZGWd+KdD4D9MvGMwZP0vEFHwL0YZpEf+KScWweQTrHlnrcdhh8CzCAEPnhZgW0TplE1/qnmBDkSiSla22RYAtc/XPo7CDsNsmCj4V50xCCqir/EyrJhjA0Hg0WEDwAwEwoHg8gKvBT9I2vb1nftRSvpwKg6M01QMfjOv7TJeQuYtRXhBkC4MFnSXfmN0SH11zROZ36IDa0jnmC0BUHRaEb307UKREHrwny5/7lu0mKzZuuXng0kIdEEIrLAUBCj4q+BBFIs+wIED40TBf6OJd/YZLyF7llK8NfjHM8vgR3irULLWC4tPLu4lqWNJsy0BkNeSJ33h26giL9gl+PU9Q4eAiVeORyHgHqnPm7PhgeCXvmDz9wOKwS7Br+s5wPUjuLxY+lYhaOmSf5w+j52GtgRAa2vrNhS5FbNhemT7h7CqKWBot6qBIPCIudMBhEDkq8SX5KwtSQT/jIHFcH1/+x0k1+xohsX1O2USt3TtCg2ySla02xIATWsjkb1MJGhLaytMerseVjT6RdUsaSMIWP50oC34H0IBpUd+Cn56XTfWtVWi4L9+7RagfUmy4Q831DbsltRJizndC7ElAEiEsqvK6GJTNY0bZXLczeu3wuPYGzCqY9VyHQKWPB04EPxXyvRTIPifwX1R+rCTTKdc2W0LgLqldXsrKiqo+/tHkXgEgakIgUcaPhRVs6SNIGDyfQJ0OrDcXei+LOMNSSL4Zw3qAw4/8lPwj6B9MeO6Z2gFtgUA6VFTU7MPIXApjq/BbJjoYsH0uq2wzJYQsNAXiJIM/uv6Sa/VGvosV4Ykuv22D37S2NYAoAZEIUBHvidp2igTBGYgBB7atsuoimXL6TkBkz2ByFeJM9ETqKys7AJVQNddpN1+OvJz8EPa/zKxQNsDgEQhCOAOSp94WknTRpkgMHNDAzywVXpV12gROSvPJQRQ2y7V1dWPYuPHYhYmDn6hPJYzOgIApCruoPtxR70cx1dgFqbZG7czBIQKHTCipnrwE2APGBKMcfAnEMXiRY4BAOkchQAdpZbTtCgTBBbX7xBVsaQtmz2BaPDTI9fC4KcfANDXerjbb8ldRrhRjgIAtZQgAFVAEKDzVRD9zdvUCHe/976oiiVt2YBATPDT9RVDHSj455X1A/pen2ElixrsdMEvUxI6DgARoaqgBargaoDIRSscGKf57zTBXQyBdgJx8LeTwxFX+9u1KGbCmQCgBh6AwMM0KcoLEAIL320SVbGkLRM9gWSCn7r9fOS35K5heqOcCwCSoA0C9Au1JTQpygvffR9uf6dRVMWStnRCoKKioiueQtH1E2m3/7aT+8EVJcdaUhPRRnG3v706zgYAtZUgAHAdjtJv1XFgnO55b4eyEKDgx9updBuVHqwyFInO+Sn4x/Xh4DcUKc2GTC7O+QBoU68VBxMw09tqcGCcCAK3bt5uXMGillR6AjHBP1zUPA5+kTr2tKkCAPIOQeB6HJFCYNGWnaAKBKLBvwp1EQZ/fl4eLDylFPjIj0o5KKkEAHKbDoG7aUKUCQJzNtm1JzAATPyKkB4bfhy7/a+iDr/BbJgo+O/E4B9l4sUYhgvJkeGPO3eDyZ/0Ovpqv5H8qgGAdGjFfzdhvhOzMN1fvxNmbbDfex6S+RUhCjAUs2HSg39kkdewjlUNT+/6CCa+9Z6Z3/NbNvgzra2KANA1nYwjd2AWpiXbdsHMDduEdaxoTOKagOHm2z34f/fmu7C/lXhv2EQyKBv81HiVAUDtn4L/FmAWpoe2fQD0c2JhJQsaU4EAB78FHZqBTVIdACTpVFehex6NiDK9S2Dq+nqQHk9EC8mBrTMQ4ODPgaNytEoGAAqvNYduMQOBx7b7YdrbdoWAqQuDQMF/9+D+YMdzfrrg91sHdftx18x4YgBEJY5AwOuZE500HDzW6IcptoRAPsheKkLBf++Q/nBJ70LD9lvV8DRf8OuUaxgAMbJpgeAst889I6Yo4egTCIHJ67Y46nSgC97nX3Tq8TC8lz2Dny/4Qaf+GABxsoX8oVtdXtesuOIOkyuaAnDTWntC4NFhA2FCaU84vFvXSLuKDz8Ulp8+CH7T85jItJ3+0bP9Jrv9T5ddVWbrF3hmwi8MgASqagFtjpmewKr37QmBrvl5MGNgH2isPAt2YK79r2FwduGRCZSwdhGd8yfxkM8ldnp7b7aUZwAYKE09gQKve5qB+ftigsDEt94187DJ9/NYZYSe7T8s2guwyjaZ3Q4+5zerlLgeA0CgTzgQmu/yeeiBIUEtgDU7dsMEc0+cCZfDRnMKUPDzOb85rWS1GAAShTR/8E6Xz0WPDgtrUnf0OrwFRR8iEVZkY0oKcPCnJF+HmRkAHSTpWKD5tbtdha4bO1ralzyDt6IYAu01SeeUKsGfTs1ky2IAyBSK2rVm7R68O0A/JxY+DEgQuOaNd2Bfi7BadKk8MKsAB79ZpZKrxwBIQi8toC0q8Lnpo6TC6H7ug49hfO1mhkAS2oqqcvCL1EnNxgBIUr+wP/SgGQj82f8JQyBJbRNV5+BPpEr6BAOZ9wAAEABJREFUyhgAndAyCgF6z6CwJ8AQ6IS4MbOoGPwxzc/KKAOgkzIjBJYUFHquwdmlELgSTwf2trRgVU5mFeDgN6tUavUYACnoF24OPoy3CK/ARQgh8Bc8HRj72ibYwxBAqeSJg1+uUbpqMABSVFLza4+ZgcDfmj+DcQwBqdoc/FKJ0lqBAZAGOaMQGIeLEvbzCQLcE0CVDJLqwW8gS0aLGQBpkhch8HiB1z0aF7cfs2F6EXsCo17ZCN/uF7LCcH6nGjj4c+NZBkAadQ8HQqsKvB4pBP75URBGv7qBIRDVnoM/KkQOBgyANIseDgSfRAiMwsUKewIvfxSCUQwB4ODHPSWHiQGQAfERAk/hhcFLcdH7MBumGoTAZa9sgK/3CVlhOL/dDRz8BzyYqzEGQIaUx2sCf3AVui7BxQsh8MrHIRipIAQ4+HHPsEBiAGTQCVqzVo0QGIGr2IvZML3+iaYUBDj4DXeFrBsYABmWHCHwtMvrMgWBS2rqHH86wMGf4R0uycUzAJIUrDPVtYD2jNvrpg9w7hHN/8anYRiBEPjSodcEOPgTez+XpQyALKkfCoSe8/g8lbg6IQTeJAi8XAdf7hVeOsDF2Ctx8FvTXwyALPol6A8+bwYCaz+jnoBznhOgl6Twq7uzuKMlsSoGQBJipaNqDAS+Ey2PIPDg1p2iKrawad/tgZvWbTHz1mR6bz+/ujvLXmUAZFlwWh1BoMB75AU4LoQAPTaMdWydXsM7HCaec1A2+HPtXAZArj3A6ycFeD8kFXKQWfgciI7XAc4NBz57FlfdHbNhsuPXeuIb89Mfu+CQrl3ii+OnL6hbWre67KqybvEGns6sAgyAzOrbYekU/HgKUI0GYfAPObIAru3XE6vZO7m6HwR3De4P+Xn0HSJhWy5kCAj1yYiRAZARWRMv1OPznBsN/oMS12grpeBfXXESHNzFGe65sMfRcP/QE4C+QNzWQsP/FyIE1qjSEzBUIYsGZ+xhWRSss6tye93nmwn+oUcVwOozy8Cu3+wz0ucihMB95iBApwMMASMh01zOAEizoIkW5/K6LgwFQn9Am/DIPwzPl1dXYPDLz5lxUfZLDAHr+YwBkGGfuApdlVpAW42rEV7gouBfdcZJZi6Y4aLsmxgC1vIdAyCD/ogEf7P2FK6Cgx9F0BNDAEDXItdDBkCGPFDg84zQ2oK/q2gVFUe74Sns9pu4VSZajO1sDAFruIwBkAE/FHg9l4T9wZW4aGHwn4nBv+J051ztx/YmlRgCScmVkcoMgDTLWuB1jwwHgitwscKnXyj4lysc/KhPJDEEIjLk7B8DII3Suwvdl4UDoSdwkcLg/9nRHlD5yI/6tEuqQaBd43M8wQBIkwNcPtfYULM8+Onx3hVnDILuDnnIJ03yAUMgXUomtxwGQHJ6JaxNwa/5tUfQKNTzl4VHwmM/HQgH5Qur4WLUTAyB7Pud98QUNXd5XeOiwS982J2C/1EOfqnaDAGpRGmtwABIQc6CQs94LaAtw0UIg/8c34/5yI8imU0XOfixYbMaZKseA6CTShf43NeGm4NLcHZh8P8ag39Z+QDoxt1+lMp8YgiY1yqVmgyATqgXCX5/6H6cVRr8D2Pwd80XVsPFcEqkAEMgkSrpLWMAJKknB3+SgqVYnSGQooCS2RkAEoFiza5C1w1hf+gBLBMe0un378uGDQA+8qNSaUhOgUAapEj7IhgAJiWl4Neatbtl1Sn4Hxh6gpk34MgWxfYYBRgCMWKkcZQBYEJMvM9/Iwe/CaEyXIUhkH6BGQASTV0+zyTNr90lqQYX9zwG+MgvUyl1O0MgdQ1jl8AAiFUjbrzA656q+YML44o7TA7vVQiLTz2eu/0dlMlMQZIQsMTbhjOjROpLZQAYaOj2uaeHA6HbDczfF4/s7YVFNg3+VmyFXb9BSBAwqTu9aJQhgL5OlBgACVRxeV0zQ/7QvASmdkUU/HcN6Q/CWwLt5rDGxL6WVpi3aTsUV78EvTCX/+/rYMevENFp172of765V44/xW8b7rj/MQDiNKHg1wLa7LjiDpOjirxgx+Dfi8E/7vVNsLh+J3wR/QJx4xdfwahXN8KaHc0d2mn1guF4+mXyleMX1fHHRzq4kwEQI4nL65ltJvjHFPtg4WD7Hfkp+K/A4P9r4NOYVreNtrS2wvVrt8CqpkBbgY3+X2T+twM5OR2wspQMgKh3XIWeOVogODM6aTgY28cHC04ptV23XxT8emMJApPermcI6IIoMGQAoJMLfO5btebgLTgqTBT8t5/szODXG84Q0JVQY8gAAJgf9od+L3P3+JLjYL7Dg1/XgCGgK+H8oeoAWIAunoJZmK7uexzMLesrrGNFo5luv9F2MwSMlEmu3Oq1VQYAPeBzs8xB1/TrAXNOUiv4dU10CKzkC4O6JI4bqggAum1/L3pyEmZhug6Df/agEmEdKxqTOPK34PbXYjZMBIHJeGHQrhCgh4W6mHtOQMmHhVQDgB78Ew33+KhhYv+eMMvhwe8udI+pwD9s8hrMhokgMGndFnh0+4eGdaxqoIeFTH6VWMlbhCoBQA/+CbKdlYJ/+oA+smqWsydz5KfgDzWHVtbU1OxDBlyGjRFCgB4b/v36rbaEQK6eE0BNLZ9UAQAF/2L0hjT4bzi+F6gS/KhHJMVA4MlIgcE/hoCBMDYudj4AqoDaSC/v/K3MTzcd3xumnVgsq2Y5e2eO/PGNIAhUVlaOxnL6piEOEicdAo802O90gHsCHX1KwdGx1CklFPxV8CA2ZzxmYZp8Qm+YcmKRsI4VjekIfr1d1dXV+xECl+O0FALT67bCMoYASmXv5FwAtAX/Q+geafBT4E8+Qe3gR50iKRkIzGAIRDRL9M8uZc4EwIHgv1LmiKl41Keuv6ye1ezpPPLHty1ZCDy0bVf8Iiw/zacDbS5yHACwC9sFquAxAJAG/4yBxXAjnvdjXVulTAa/LkQMBJbrZYmGdE1g5oYGeGDrzkRmS5cxBCBygczSTkpm4yj4ccd9HOehi1k4ME6zBvWBCaW9jCtY1JKN4NebjlrSNYFxOC2EANph9sbtDAESwmbZMT2AmOCne9pCN1DwX9evp7COFY3ZDH69/QQBqIKxALAMszAxBNrksdN/RwCgoqKiK+6odJQSBn8eembOSSXAwY9CJJOqoAWq4GpgCKAE4KgnBm0PAAp+vIdNt60uJe8YZQr+eWX94Oq+PYyqWLY8F0f+DmIwBGIlcQwEbA2AaPDT02vDY70TP07BfysG/5Ulx8abLD9tieDXVUoSAovrd+hz2mZ4kWKvF7MtAOgNr3jkfwr3rIsxGyZ6Y+z8k/vBFbYM/hYweodfXIP3F3jdo+nZ/rjy9E8egMBS2cLnbWoEu0KAfkVI+46kjR16ApL6ljPbFgB1S+vuRzUrMRsmcuAdGPyX97HjkZ+CfzMkeoFnXIMx+D2jwoHQqrjyzE22QeAaXIFjIUC/IkzileOLUAtbJlsCoGhIkRfVFt7np+C/85RSGFXsw6r2Sntbkg3+IPWEstvIAxB4WLZiu/YE6JXjJiEwvqS85BiZDla02xIAeXl5fVFMOrXHQeI0ro8PRkY4kdhu1dLkgt89JhzIQfDr4hEEAKgnQI9c66UJhwSBu997P6HNyoUEgev7S28Z5+/bC7RPWrkpCbfNlgBozW+VPna2sqkZaj4KJmy0VQuTC/4sd/uNRWuFKrgOAOgXlzgwTvPfaQK7QWCz9i94dLvfuFFRS35Ly67oqK0GtgRA0xtNdCh5RqT0t/v3w6hXN9kGAskHfw6P/PHCt/UECAL0y8t4a7tpgsBdNukJ1H/+b7j45Tr415697dqQYOKZxvWN9rvlgQ2xJQBwu6H83HL62errNG6UdQi8bPGewN6WVrzab+qCX0uB1zM6p91+I7EBWtFE71ygi7M4apwWYE9g4btNxhUsYGn64iu46J/rIfydNPjXlVZWjLHAJndqE2wLgNrna/+Nwv8KW/0aZsPUBoGNYFUItAX/JjNX+1voNV4Y/PTcg2F7c2wgCEzAbViMWZgWvvs+3P5Oo7BOrowffPkNXPDS2xD8do9sEzYMPK/il/XVNV/KKlrVblsAkKAkPELgP3FcCIHv9rfg6YD1IJBs8GflPj+KmWIiCFyPy5DeGrvnvR2Wg4D/q2/gvJfWwcfffIdNEKb3Bp8/+OxNf6r5nGrZNdsaACS6XSHg0OAnl1AmCNyAI6YgcNtma/QEdn/9baTb3/zVt7jpwrRtyIghP1/33LqQsJYNjLYHAGlsNwg4PPjJJZQJAtQTuJMmRPneLTvg1s3bRVUybvsMu/uVeM6/899fy9a1fdDw8rPWrl77iayiHeyOAAAJbRcIKBL85BI9T8YRKQQWbdmZMwiEvtsTOfI34oU/3FZR2llWWf6LjWtqd4sq2cnmGACQ6FaHgILBT26hbFkIfI63+H6Dt/q24i0/2lBBDgyuHHxWXXVth9chC+axvMlRACC1rQoBhYOf3ELZNATmbsrO6cCXe/cBBf872he0faL8ca/Bfc9aV71up6iSHW2OAwA5wWoQ4OAnr0QyQWBBZEzw7776nTBrY4OgRuqmr/fthxE1G2Bj6F+yhQVdx7rO2rFuW3aoJNuaNNsdCQDSyCoQ4OAnb7TLU3FKCoElW3dlDALf4m3hka9sgLWfhXFThCl8ROFRP9c+1OqFtWxsdCwAyCe5hgAHP3khYZ5a4HPfltASUxiBwIb09gTomZDLX9sIr3+ixawp4egXHp/n7M+bP92c0BottPvA0QAg5+QKAhz8pL5xDvtD012F7nnGNdosS7btgpkbtrVNpPiffHJl7WZ4abf0R2Jfuo5x/SroD65PcZWWn93xACAPZBsCtKOZfJNP5PFemzzhR1KmNWvNoVvMQOChbR/ALXWpQaCltRWuwuB/IfCprA3feLyeX2u7tTdkFZ1gVwIA5KhsQYCDn9Q2nyMQ8HrmyOZ4uKHzEKDg/92b78Jf/NJnd75z+VznBQPBGtn2OMWuDADIYZmGAAc/qZx81gLBWS6TEKCPkiazhsjjiGu3QPWuj2Sz7Sko9Fyo+bUXZRV1uxOGSgGAHJYpCHDwk7qdz2YhsKzhQ5i6vj7y22Mza7t5XT2s2dEsq7rP7XWPCDcH/yKr6DS7cgAgByYLgZd2f0azGWYOfkNpkjJEITBbNtNj2/0wzQQEZuB1g+VN0rf5tBT4PKNCgdCzsvU60a4kAMiRyUBgzGub8MpxYghw8JOa6csIgSq3zz1DtkQZBOZt2g5L8bqBZDmt7kL32LA/uFpSz7FmZQFAHk0VAhz8pGL6c8gfutUsBKa83fF0gN44tLh+p2zDWvGc/xq8A0OflJPV7WB3SoHSACAndhYCHPykXuZyBAKF7umyNTzR6IdYCNBjxGbeOejyum7Ac37pK81l67e7XXkAkANjICB8xyA9RUanAy82fwYm7/PvL8jWF3uoIQ7LeHS+zUxPQHUEFwIAAAPSSURBVIfAw9s+gLnY9ZfJgD6ZogU06ctKZMtxgp0BEPUiQaD83HJTrxej58hNfLGnpSDyAs8sfrEn2hYnDZLpCdxi4olBl881MxwI3eEkjVJpCwMgRr3oi0alEIiZxWg08oRfOBC08gs8jbbdcuXUE8Cj9rRUNwxv9S3Q/NrcVJfjpPkZAHHepJ5A9EWjwtOBuNliJ7nbH6tGmsbDgdD8FCFwL97qo18ipmmLnLEYBkACP0YhIH3leIJZ6ch/Oe6s2ftQZ4KNcGoR6jrf5fPQOwWSbeISnOFGzJziFGAAxAmiT0YhkMzpAAX/GOyurtSXwcP0K6D5g3fiefxNSSx5OVQBfbCEngoG/muvAAOgvR7tpggCeGHwHCx8DbMo0QW/URz8IonSZ8Pz+LuxJzDJxBKfrKysHAdV0AJp+nPaYhgAEo+auDAYOfKH+YKfRMn0mrEncJer0CXq1j9TUVExprq6en961+yspTEATPiTegLRC4PxPxPdgxemRvOR34SIGaiiNWv3uLyu63HR8Uf4Z8uuKhtRU1OzD22cBAowAATixJoIAnhE+UXx0OJLsZw+gDm3pLzkxHCA7/OjHjlLWkBbVHxacRluwALMi4tOLflvHF5Ut7RO+lVPrKd8YgAksQvQEaXxzcancJbfYZ7ZUNvQgENOOVag8Y3GTbgJdItvYtNbDc/jeCvmtCcnLpAB4ESvcptYAZMKMABMCsXVWAEnKsAAcKJXuU2sgEkFGAAmheJqaivg1NYzAJzqWW4XK2BCAQaACZG4CivgVAUYAE71LLeLFTChAAPAhEhcRW0FnNx6BoCTvcttYwUkCjAAJAKxmRVwsgIMACd7l9vGCkgUYABIBGKz2go4vfUMAKd7mNvHCggUYAAIxGETK+B0BRgATvcwt48VECjAABCIwya1FVCh9QwAFbzMbWQFDBRgABgIw8WsgAoKMABU8DK3kRUwUIABYCAMF6utgCqtZwCo4mluJyuQQAEGQAJRuIgVUEUBBoAqnuZ2sgIJFGAAJBCFi9RWQKXWMwBU8ja3lRWIU4ABECcIT7ICKinAAFDJ29xWViBOAQZAnCA8qbYCqrWeAaCax7m9rECMAgyAGDF4lBVQTQEGgGoe5/ayAjEKMABixOBRtRVQsfUMABW9zm1mBaIKMACiQvCAFVBRAQaAil7nNrMCUQUYAFEheKC2Aqq2ngGgque53awAKsAAQBE4sQKqKsAAUNXz3G5WABVgAKAInNRWQOXWMwBU9j63XXkFGADK7wIsgMoKMABU9j63XXkFGADK7wJqC6B66/8fAAD//+oZd/wAAAAGSURBVAMAPNcb8efVBtIAAAAASUVORK5CYII=;" vertex="1" parent="bbOC-xiMH83N-T7EL9Z--1">
          <mxGeometry x="160" y="53" width="30" height="30" as="geometry" />
        </mxCell>
        <mxCell id="bbOC-xiMH83N-T7EL9Z--5" value="" style="endArrow=classic;html=1;rounded=0;strokeWidth=2;strokeColor=#4D4D4D;" edge="1" parent="bbOC-xiMH83N-T7EL9Z--0">
          <mxGeometry width="50" height="50" relative="1" as="geometry">
            <mxPoint x="30.900000000000006" y="90" as="sourcePoint" />
            <mxPoint x="30.900000000000006" y="120" as="targetPoint" />
          </mxGeometry>
        </mxCell>
      </root>
    </mxGraphModel>
  </diagram>
  <diagram name="paso_4" id="97bVYTOGIMdcyt6czMgn">
    <mxGraphModel dx="1370" dy="843" grid="1" gridSize="10" guides="1" tooltips="1" connect="1" arrows="1" fold="1" page="1" pageScale="1" pageWidth="850" pageHeight="1100" math="0" shadow="0">
      <root>
        <mxCell id="hgd-Ef9XinthvIfECaWp-0" />
        <mxCell id="hgd-Ef9XinthvIfECaWp-1" parent="hgd-Ef9XinthvIfECaWp-0" />
        <mxCell id="hgd-Ef9XinthvIfECaWp-2" value="&lt;span style=&quot;color: rgb(77, 77, 77); font-family: &amp;quot;Cascadia Code&amp;quot;;&quot;&gt;&lt;font style=&quot;font-size: 18px;&quot;&gt;&quot;Bruno&quot;&lt;/font&gt;&lt;/span&gt;" style="rounded=0;whiteSpace=wrap;html=1;strokeWidth=1;fillColor=#DFEAF2;" parent="hgd-Ef9XinthvIfECaWp-1" vertex="1">
          <mxGeometry x="285" y="305" width="120" height="70" as="geometry" />
        </mxCell>
        <mxCell id="hgd-Ef9XinthvIfECaWp-3" value="&lt;span style=&quot;color: rgb(77, 77, 77); font-family: &amp;quot;Cascadia Code&amp;quot;;&quot;&gt;&lt;font style=&quot;font-size: 18px;&quot;&gt;&quot;Carla&quot;&lt;/font&gt;&lt;/span&gt;" style="rounded=0;whiteSpace=wrap;html=1;strokeWidth=1;fillColor=#DFEAF2;" parent="hgd-Ef9XinthvIfECaWp-1" vertex="1">
          <mxGeometry x="405" y="305" width="120" height="70" as="geometry" />
        </mxCell>
        <mxCell id="hgd-Ef9XinthvIfECaWp-4" value="&lt;span style=&quot;color: rgb(77, 77, 77); font-family: &amp;quot;Cascadia Code&amp;quot;;&quot;&gt;&lt;font style=&quot;font-size: 18px;&quot;&gt;&quot;Diego&quot;&lt;/font&gt;&lt;/span&gt;" style="rounded=0;whiteSpace=wrap;html=1;strokeWidth=1;fillColor=#DFEAF2;" parent="hgd-Ef9XinthvIfECaWp-1" vertex="1">
          <mxGeometry x="525" y="305" width="120" height="70" as="geometry" />
        </mxCell>
        <mxCell id="hgd-Ef9XinthvIfECaWp-5" value="&lt;span style=&quot;color: rgb(77, 77, 77); font-family: &amp;quot;Cascadia Code&amp;quot;;&quot;&gt;&lt;font style=&quot;font-size: 18px;&quot;&gt;&quot;Elena&quot;&lt;/font&gt;&lt;/span&gt;" style="rounded=0;whiteSpace=wrap;html=1;strokeWidth=1;fillColor=#DFEAF2;" parent="hgd-Ef9XinthvIfECaWp-1" vertex="1">
          <mxGeometry x="645" y="305" width="120" height="70" as="geometry" />
        </mxCell>
        <mxCell id="hgd-Ef9XinthvIfECaWp-6" value="&lt;span style=&quot;color: rgb(77, 77, 77); font-family: &amp;quot;Cascadia Code&amp;quot;;&quot;&gt;&lt;font style=&quot;font-size: 18px;&quot;&gt;&quot;Ana&quot;&lt;/font&gt;&lt;/span&gt;" style="rounded=0;whiteSpace=wrap;html=1;strokeWidth=1;fillColor=#DFEAF2;" parent="hgd-Ef9XinthvIfECaWp-1" vertex="1">
          <mxGeometry x="165" y="305" width="120" height="70" as="geometry" />
        </mxCell>
        <mxCell id="CJOudteFChhYgeqdd8uz-0" value="" style="group" vertex="1" connectable="0" parent="hgd-Ef9XinthvIfECaWp-1">
          <mxGeometry x="670" y="180" width="200" height="120" as="geometry" />
        </mxCell>
        <mxCell id="CJOudteFChhYgeqdd8uz-1" value="" style="group" vertex="1" connectable="0" parent="CJOudteFChhYgeqdd8uz-0">
          <mxGeometry width="200" height="100" as="geometry" />
        </mxCell>
        <mxCell id="CJOudteFChhYgeqdd8uz-2" value="&lt;font style=&quot;font-size: 32px;&quot;&gt;🕵🏻&lt;/font&gt;" style="text;html=1;align=center;verticalAlign=middle;whiteSpace=wrap;rounded=0;" vertex="1" parent="CJOudteFChhYgeqdd8uz-1">
          <mxGeometry y="40" width="70" height="60" as="geometry" />
        </mxCell>
        <mxCell id="CJOudteFChhYgeqdd8uz-3" value="&lt;font style=&quot;color: rgb(77, 77, 77);&quot;&gt;&lt;span style=&quot;font-family: &amp;quot;Cascadia Code&amp;quot;; font-size: 18px;&quot;&gt;¿&lt;/span&gt;&lt;font style=&quot;font-family: &amp;quot;Cascadia Code&amp;quot;; font-size: 18px; color: rgb(77, 77, 77);&quot;&gt;&quot;Francisco&quot;&lt;/font&gt;&lt;span style=&quot;font-family: &amp;quot;Cascadia Code&amp;quot;; font-size: 18px;&quot;&gt;?&lt;/span&gt;&lt;/font&gt;" style="whiteSpace=wrap;html=1;shape=mxgraph.basic.roundRectCallout;dx=30;dy=15;size=5;boundedLbl=1;" vertex="1" parent="CJOudteFChhYgeqdd8uz-1">
          <mxGeometry x="40" width="160" height="60" as="geometry" />
        </mxCell>
        <mxCell id="CJOudteFChhYgeqdd8uz-4" value="" style="shape=image;verticalLabelPosition=bottom;labelBackgroundColor=default;verticalAlign=top;aspect=fixed;imageAspect=0;image=data:image/png,iVBORw0KGgoAAAANSUhEUgAAAQAAAAEACAYAAABccqhmAAAQAElEQVR4AeydCXxU1b3H/wkgVq01M6OtZkZZEgJBBYyCGKqxtvb1+epziwVFQFBxacEFBApCWFQQN3BBwY1FoY1Ln319tbbWuEQFCYtKICQCOhPcZu5Y68qSvP9/Mlcmk7nn3Mls997zz+ec3HvP/9zl/P73/73nLnNvPvAfK8AKKKsAA0BZ13PDWQEABgDvBayAwgowABR2PjddbQWo9QwAUoEzK6CoAgwARR3PzWYFSAEGAKnAmRVQVAEGgKKO52arrYDeegaArgQPWQEFFWAAKOh0bjIroCvAANCV4CEroKACDAAFnc5NVluB2NYzAGLV4HFWQDEFGACKOZybywrEKsAAiFWDx1kBxRRgACjmcG6u2grEt54BEK8IT7MCCinAAFDI2dxUViBeAQZAvCI8zQoopAADQCFnc1PVViBR6xkAiVThMlZAEQUYAIo4mpvJCiRSgAGQSBUuYwUUUYABoIijuZlqK2DUegaAkTJczgoooAADQAEncxNZASMFGABGynA5K6CAAgwABZzMTVRbAVHrGQAiddjGCjhcAQaAwx3MzWMFRAowAETqsI0VcLgCDACHO5ibp7YCstYzAGQKsZ0VcLACDAAHO5ebxgrIFGAAyBRiOyvgYAUYAA52LjdNbQXMtJ4BYEYlrsMKOFQBBoBDHcvNYgXMKMAAMKMS12EFHKoAA8ChjuVmqa2A2dYzAMwqxfVYAQcqwABwoFO5SayAWQUYAGaV4nqsgAMVYAA40KncJLUVSKb1DIBk1OK6rIDDFGAAJOHQioqKrsVDiy/BWe7DPKekvKQEh5xyrEDR0KJBuAnzMS8qOrXkXBzmYeZkQgEGgAmRqEppZcVhNTU1/2h8s/FJnP4t5lsaahs2F3g9BASc5JQLBVxe18SmN5vW47qnYJ7Q9FbD/+BwTdlVZd1wyEmiAANAIhCZKfjrq2v+iuNnYI5N3cOB4Ep3ofuy2EIez44CLp/rRi2g3Ytri9+PL65bWvck9djQplRKtrHxwiU7v+Prl59b/sNo8A8zaGx+qDn0RIHXc6mBnYszoIDL57lJ82t3CRZdiT22xysrK7sI6ihvYgAIdgE68tc+X/t/WMUo+NEUSfnhQHAF9wQiWmT8Hwb/JM0fvNPEikZWV1cvhSrg/RwS/7EwiXUBCn7JkT9+zkhPgCEQL0t6pwu87qkY/AuTWOpYqAK6aMsXBqHjHwOgoyZ68L+AJtmRH6u0SwSBx3EnHdmulCfSogDqOjUcCN3eiYVdi/OIThfQbP/UmRYwAOJUiznyl8eZzE52wZ10OfcEzMplrh7qOQ117Uzw6yu4ocDnvk2f4GGbAgyANh0i/01c8IvUM/GPegJ8YdCEUGaquH3u6XihNeXgDftD03BZM8ysU5U6DICop+nIb+aCX/cu+bDyjEHwK+9R0TkNB3xh0FAa8wYM2Okhf2iebI4xxT6Ye1JfWTXAZc3FUwl6ZkBaV4UKDAD0MgW/mQt+FPwrTh8Evyw8Ch4ZNtAUBPDI9QR2X/k5AdQ52ZRM8C84pRTG9z0OZgwslq4GTyXmu7yuidKKNqrQ2U1VHgDJBv+ZR3siWnfLz2MIRJTIzD+zwT+2jw8o+PVL/BNKe8FNx/eWbpQW0O4pKPSMl1Z0eAWlAdDZ4Nf3CYaArkR6hy6vpwq76tJuPwX/7SeXgh78+lZMObEIJpT21CeNhnnh5uAS7J2NNqqgQrmyAEg1+PWdgyGgK5GeIQb/bC0QnCVb2rg+x0Ki4NfnmzGwD1xVcpw+aTTMw1O0xwp8nhFGFZxeriQA0hX8+s7BENCVSG0YDf6ZsqVcWULB36/DkT9+vnllfWF0kS++OH46P+wPrnB73RfEG+wyncp2KgeAdAe/Lj5DQFeic0OzwT8ej+q3lvUzvZI7BpfC8F6FsvpdQ4HQarwmcI6sotPsSgEgU8Gv7xQMAV2J5IauQvdc7PZLj/wU/HPxqJ7M0un6wL1D+kNlj6Nlsx2E1wSecflcZ8sqOsmuDAAyHfz6TsEQ0JUwN4wEf3NI+nDONX17QLLBr29Bfl4e3Df0BDjH92O9yGjYXfNrf/J4PRVGFZxWrgQAshX8+s7BENCVkA7nayaDf/ZJqb18iSCwtHwAnF14pGyjfhAMBP/sKnQNlVW0gj3VbXA8ALId/LpDGAK6EoZDeoWX9Im8a/r1gFSDX98C8smjwwbCGT9x60VGw8O0Zu0Fj89zslEFp5Q7GgC5Cn5956Adjp8Y1NVoN1yAU9Lgv5aCf1BqR35cT7tET3OuPOMkOO2ognblCSYOD/qDLx5ReNSABDbHFDkWALkOfn0PYQjoSnw/pN/y3/z9lMHIxP49oSrNwa+v6uAu+fBURRmc4jlCLzIaFnze/Ok/XMe6So0q2L3ckQAoraw4LJln+/XHezPlTIbA98pS8E/6fspghIJ/+oA+Btb0FB/StQv84cwyGOT+kWyBHu1D7aXeQ3sXySpm256O9TkOAFYLft1JDAGwTPDrPjmsW9cIBE50Ha4XGQ1/8v6b77986vBTexhVsGu5owBg1eDXdw6FIWC54Nd9csRB3SIQ6HfED/Uio6H3rTVv/bOssvxYowp2LHcMAKwe/PrOoRgE8rDd9Npuabf/huN7Qaa7/bgtCZO7+0Hw9M9OhuLDD01ojynsWVdd+/dBw8uPiSmz9agjAGCX4Nf3FEUgoAf/RL3dRkMK/mknyn/HbzR/OsqPPPggqEYI9PzhIbLF9dm4pvbvp51/mvSNMLIFpWJP17y2B4Ddgl93nMMhoAf/BL29RkMrBL++bccccnCkJ1B46MF6kdGw9I3n3vjb4PMHSx8oMFqAVcptDQC7Br/ufIdCwHTwTz6hN+T6yK/7Qh/6Dv0BPHfWKfCTH3TXi4yGA9c9t+6vA8+rOMKogh3KbQuAcvkXeyL6H9ylC6w8fRBk+lZfZGWd+KdD4D9MvGMwZP0vEFHwL0YZpEf+KScWweQTrHlnrcdhh8CzCAEPnhZgW0TplE1/qnmBDkSiSla22RYAtc/XPo7CDsNsmCj4V50xCCqir/EyrJhjA0Hg0WEDwAwEwoHg8gKvBT9I2vb1nftRSvpwKg6M01QMfjOv7TJeQuYtRXhBkC4MFnSXfmN0SH11zROZ36IDa0jnmC0BUHRaEb307UKREHrwny5/7lu0mKzZuuXng0kIdEEIrLAUBCj4q+BBFIs+wIED40TBf6OJd/YZLyF7llK8NfjHM8vgR3irULLWC4tPLu4lqWNJsy0BkNeSJ33h26giL9gl+PU9Q4eAiVeORyHgHqnPm7PhgeCXvmDz9wOKwS7Br+s5wPUjuLxY+lYhaOmSf5w+j52GtgRAa2vrNhS5FbNhemT7h7CqKWBot6qBIPCIudMBhEDkq8SX5KwtSQT/jIHFcH1/+x0k1+xohsX1O2USt3TtCg2ySla02xIATWsjkb1MJGhLaytMerseVjT6RdUsaSMIWP50oC34H0IBpUd+Cn56XTfWtVWi4L9+7RagfUmy4Q831DbsltRJizndC7ElAEiEsqvK6GJTNY0bZXLczeu3wuPYGzCqY9VyHQKWPB04EPxXyvRTIPifwX1R+rCTTKdc2W0LgLqldXsrKiqo+/tHkXgEgakIgUcaPhRVs6SNIGDyfQJ0OrDcXei+LOMNSSL4Zw3qAw4/8lPwj6B9MeO6Z2gFtgUA6VFTU7MPIXApjq/BbJjoYsH0uq2wzJYQsNAXiJIM/uv6Sa/VGvosV4Ykuv22D37S2NYAoAZEIUBHvidp2igTBGYgBB7atsuoimXL6TkBkz2ByFeJM9ETqKys7AJVQNddpN1+OvJz8EPa/zKxQNsDgEQhCOAOSp94WknTRpkgMHNDAzywVXpV12gROSvPJQRQ2y7V1dWPYuPHYhYmDn6hPJYzOgIApCruoPtxR70cx1dgFqbZG7czBIQKHTCipnrwE2APGBKMcfAnEMXiRY4BAOkchQAdpZbTtCgTBBbX7xBVsaQtmz2BaPDTI9fC4KcfANDXerjbb8ldRrhRjgIAtZQgAFVAEKDzVRD9zdvUCHe/976oiiVt2YBATPDT9RVDHSj455X1A/pen2ElixrsdMEvUxI6DgARoaqgBargaoDIRSscGKf57zTBXQyBdgJx8LeTwxFX+9u1KGbCmQCgBh6AwMM0KcoLEAIL320SVbGkLRM9gWSCn7r9fOS35K5heqOcCwCSoA0C9Au1JTQpygvffR9uf6dRVMWStnRCoKKioiueQtH1E2m3/7aT+8EVJcdaUhPRRnG3v706zgYAtZUgAHAdjtJv1XFgnO55b4eyEKDgx9updBuVHqwyFInO+Sn4x/Xh4DcUKc2GTC7O+QBoU68VBxMw09tqcGCcCAK3bt5uXMGillR6AjHBP1zUPA5+kTr2tKkCAPIOQeB6HJFCYNGWnaAKBKLBvwp1EQZ/fl4eLDylFPjIj0o5KKkEAHKbDoG7aUKUCQJzNtm1JzAATPyKkB4bfhy7/a+iDr/BbJgo+O/E4B9l4sUYhgvJkeGPO3eDyZ/0Ovpqv5H8qgGAdGjFfzdhvhOzMN1fvxNmbbDfex6S+RUhCjAUs2HSg39kkdewjlUNT+/6CCa+9Z6Z3/NbNvgzra2KANA1nYwjd2AWpiXbdsHMDduEdaxoTOKagOHm2z34f/fmu7C/lXhv2EQyKBv81HiVAUDtn4L/FmAWpoe2fQD0c2JhJQsaU4EAB78FHZqBTVIdACTpVFehex6NiDK9S2Dq+nqQHk9EC8mBrTMQ4ODPgaNytEoGAAqvNYduMQOBx7b7YdrbdoWAqQuDQMF/9+D+YMdzfrrg91sHdftx18x4YgBEJY5AwOuZE500HDzW6IcptoRAPsheKkLBf++Q/nBJ70LD9lvV8DRf8OuUaxgAMbJpgeAst889I6Yo4egTCIHJ67Y46nSgC97nX3Tq8TC8lz2Dny/4Qaf+GABxsoX8oVtdXtesuOIOkyuaAnDTWntC4NFhA2FCaU84vFvXSLuKDz8Ulp8+CH7T85jItJ3+0bP9Jrv9T5ddVWbrF3hmwi8MgASqagFtjpmewKr37QmBrvl5MGNgH2isPAt2YK79r2FwduGRCZSwdhGd8yfxkM8ldnp7b7aUZwAYKE09gQKve5qB+ftigsDEt94187DJ9/NYZYSe7T8s2guwyjaZ3Q4+5zerlLgeA0CgTzgQmu/yeeiBIUEtgDU7dsMEc0+cCZfDRnMKUPDzOb85rWS1GAAShTR/8E6Xz0WPDgtrUnf0OrwFRR8iEVZkY0oKcPCnJF+HmRkAHSTpWKD5tbtdha4bO1ralzyDt6IYAu01SeeUKsGfTs1ky2IAyBSK2rVm7R68O0A/JxY+DEgQuOaNd2Bfi7BadKk8MKsAB79ZpZKrxwBIQi8toC0q8Lnpo6TC6H7ug49hfO1mhkAS2oqqcvCL1EnNxgBIUr+wP/SgGQj82f8JQyBJbRNV5+BPpEr6BAOZ9wAAEABJREFUyhgAndAyCgF6z6CwJ8AQ6IS4MbOoGPwxzc/KKAOgkzIjBJYUFHquwdmlELgSTwf2trRgVU5mFeDgN6tUavUYACnoF24OPoy3CK/ARQgh8Bc8HRj72ibYwxBAqeSJg1+uUbpqMABSVFLza4+ZgcDfmj+DcQwBqdoc/FKJ0lqBAZAGOaMQGIeLEvbzCQLcE0CVDJLqwW8gS0aLGQBpkhch8HiB1z0aF7cfs2F6EXsCo17ZCN/uF7LCcH6nGjj4c+NZBkAadQ8HQqsKvB4pBP75URBGv7qBIRDVnoM/KkQOBgyANIseDgSfRAiMwsUKewIvfxSCUQwB4ODHPSWHiQGQAfERAk/hhcFLcdH7MBumGoTAZa9sgK/3CVlhOL/dDRz8BzyYqzEGQIaUx2sCf3AVui7BxQsh8MrHIRipIAQ4+HHPsEBiAGTQCVqzVo0QGIGr2IvZML3+iaYUBDj4DXeFrBsYABmWHCHwtMvrMgWBS2rqHH86wMGf4R0uycUzAJIUrDPVtYD2jNvrpg9w7hHN/8anYRiBEPjSodcEOPgTez+XpQyALKkfCoSe8/g8lbg6IQTeJAi8XAdf7hVeOsDF2Ctx8FvTXwyALPol6A8+bwYCaz+jnoBznhOgl6Twq7uzuKMlsSoGQBJipaNqDAS+Ey2PIPDg1p2iKrawad/tgZvWbTHz1mR6bz+/ujvLXmUAZFlwWh1BoMB75AU4LoQAPTaMdWydXsM7HCaec1A2+HPtXAZArj3A6ycFeD8kFXKQWfgciI7XAc4NBz57FlfdHbNhsuPXeuIb89Mfu+CQrl3ii+OnL6hbWre67KqybvEGns6sAgyAzOrbYekU/HgKUI0GYfAPObIAru3XE6vZO7m6HwR3De4P+Xn0HSJhWy5kCAj1yYiRAZARWRMv1OPznBsN/oMS12grpeBfXXESHNzFGe65sMfRcP/QE4C+QNzWQsP/FyIE1qjSEzBUIYsGZ+xhWRSss6tye93nmwn+oUcVwOozy8Cu3+wz0ucihMB95iBApwMMASMh01zOAEizoIkW5/K6LgwFQn9Am/DIPwzPl1dXYPDLz5lxUfZLDAHr+YwBkGGfuApdlVpAW42rEV7gouBfdcZJZi6Y4aLsmxgC1vIdAyCD/ogEf7P2FK6Cgx9F0BNDAEDXItdDBkCGPFDg84zQ2oK/q2gVFUe74Sns9pu4VSZajO1sDAFruIwBkAE/FHg9l4T9wZW4aGHwn4nBv+J051ztx/YmlRgCScmVkcoMgDTLWuB1jwwHgitwscKnXyj4lysc/KhPJDEEIjLk7B8DII3Suwvdl4UDoSdwkcLg/9nRHlD5yI/6tEuqQaBd43M8wQBIkwNcPtfYULM8+Onx3hVnDILuDnnIJ03yAUMgXUomtxwGQHJ6JaxNwa/5tUfQKNTzl4VHwmM/HQgH5Qur4WLUTAyB7Pud98QUNXd5XeOiwS982J2C/1EOfqnaDAGpRGmtwABIQc6CQs94LaAtw0UIg/8c34/5yI8imU0XOfixYbMaZKseA6CTShf43NeGm4NLcHZh8P8ag39Z+QDoxt1+lMp8YgiY1yqVmgyATqgXCX5/6H6cVRr8D2Pwd80XVsPFcEqkAEMgkSrpLWMAJKknB3+SgqVYnSGQooCS2RkAEoFiza5C1w1hf+gBLBMe0un378uGDQA+8qNSaUhOgUAapEj7IhgAJiWl4Neatbtl1Sn4Hxh6gpk34MgWxfYYBRgCMWKkcZQBYEJMvM9/Iwe/CaEyXIUhkH6BGQASTV0+zyTNr90lqQYX9zwG+MgvUyl1O0MgdQ1jl8AAiFUjbrzA656q+YML44o7TA7vVQiLTz2eu/0dlMlMQZIQsMTbhjOjROpLZQAYaOj2uaeHA6HbDczfF4/s7YVFNg3+VmyFXb9BSBAwqTu9aJQhgL5OlBgACVRxeV0zQ/7QvASmdkUU/HcN6Q/CWwLt5rDGxL6WVpi3aTsUV78EvTCX/+/rYMevENFp172of765V44/xW8b7rj/MQDiNKHg1wLa7LjiDpOjirxgx+Dfi8E/7vVNsLh+J3wR/QJx4xdfwahXN8KaHc0d2mn1guF4+mXyleMX1fHHRzq4kwEQI4nL65ltJvjHFPtg4WD7Hfkp+K/A4P9r4NOYVreNtrS2wvVrt8CqpkBbgY3+X2T+twM5OR2wspQMgKh3XIWeOVogODM6aTgY28cHC04ptV23XxT8emMJApPermcI6IIoMGQAoJMLfO5btebgLTgqTBT8t5/szODXG84Q0JVQY8gAAJgf9od+L3P3+JLjYL7Dg1/XgCGgK+H8oeoAWIAunoJZmK7uexzMLesrrGNFo5luv9F2MwSMlEmu3Oq1VQYAPeBzs8xB1/TrAXNOUiv4dU10CKzkC4O6JI4bqggAum1/L3pyEmZhug6Df/agEmEdKxqTOPK34PbXYjZMBIHJeGHQrhCgh4W6mHtOQMmHhVQDgB78Ew33+KhhYv+eMMvhwe8udI+pwD9s8hrMhokgMGndFnh0+4eGdaxqoIeFTH6VWMlbhCoBQA/+CbKdlYJ/+oA+smqWsydz5KfgDzWHVtbU1OxDBlyGjRFCgB4b/v36rbaEQK6eE0BNLZ9UAQAF/2L0hjT4bzi+F6gS/KhHJMVA4MlIgcE/hoCBMDYudj4AqoDaSC/v/K3MTzcd3xumnVgsq2Y5e2eO/PGNIAhUVlaOxnL6piEOEicdAo802O90gHsCHX1KwdGx1CklFPxV8CA2ZzxmYZp8Qm+YcmKRsI4VjekIfr1d1dXV+xECl+O0FALT67bCMoYASmXv5FwAtAX/Q+geafBT4E8+Qe3gR50iKRkIzGAIRDRL9M8uZc4EwIHgv1LmiKl41Keuv6ye1ezpPPLHty1ZCDy0bVf8Iiw/zacDbS5yHACwC9sFquAxAJAG/4yBxXAjnvdjXVulTAa/LkQMBJbrZYmGdE1g5oYGeGDrzkRmS5cxBCBygczSTkpm4yj4ccd9HOehi1k4ME6zBvWBCaW9jCtY1JKN4NebjlrSNYFxOC2EANph9sbtDAESwmbZMT2AmOCne9pCN1DwX9evp7COFY3ZDH69/QQBqIKxALAMszAxBNrksdN/RwCgoqKiK+6odJQSBn8eembOSSXAwY9CJJOqoAWq4GpgCKAE4KgnBm0PAAp+vIdNt60uJe8YZQr+eWX94Oq+PYyqWLY8F0f+DmIwBGIlcQwEbA2AaPDT02vDY70TP07BfysG/5Ulx8abLD9tieDXVUoSAovrd+hz2mZ4kWKvF7MtAOgNr3jkfwr3rIsxGyZ6Y+z8k/vBFbYM/hYweodfXIP3F3jdo+nZ/rjy9E8egMBS2cLnbWoEu0KAfkVI+46kjR16ApL6ljPbFgB1S+vuRzUrMRsmcuAdGPyX97HjkZ+CfzMkeoFnXIMx+D2jwoHQqrjyzE22QeAaXIFjIUC/IkzileOLUAtbJlsCoGhIkRfVFt7np+C/85RSGFXsw6r2Sntbkg3+IPWEstvIAxB4WLZiu/YE6JXjJiEwvqS85BiZDla02xIAeXl5fVFMOrXHQeI0ro8PRkY4kdhu1dLkgt89JhzIQfDr4hEEAKgnQI9c66UJhwSBu997P6HNyoUEgev7S28Z5+/bC7RPWrkpCbfNlgBozW+VPna2sqkZaj4KJmy0VQuTC/4sd/uNRWuFKrgOAOgXlzgwTvPfaQK7QWCz9i94dLvfuFFRS35Ly67oqK0GtgRA0xtNdCh5RqT0t/v3w6hXN9kGAskHfw6P/PHCt/UECAL0y8t4a7tpgsBdNukJ1H/+b7j45Tr415697dqQYOKZxvWN9rvlgQ2xJQBwu6H83HL62errNG6UdQi8bPGewN6WVrzab+qCX0uB1zM6p91+I7EBWtFE71ygi7M4apwWYE9g4btNxhUsYGn64iu46J/rIfydNPjXlVZWjLHAJndqE2wLgNrna/+Nwv8KW/0aZsPUBoGNYFUItAX/JjNX+1voNV4Y/PTcg2F7c2wgCEzAbViMWZgWvvs+3P5Oo7BOrowffPkNXPDS2xD8do9sEzYMPK/il/XVNV/KKlrVblsAkKAkPELgP3FcCIHv9rfg6YD1IJBs8GflPj+KmWIiCFyPy5DeGrvnvR2Wg4D/q2/gvJfWwcfffIdNEKb3Bp8/+OxNf6r5nGrZNdsaACS6XSHg0OAnl1AmCNyAI6YgcNtma/QEdn/9baTb3/zVt7jpwrRtyIghP1/33LqQsJYNjLYHAGlsNwg4PPjJJZQJAtQTuJMmRPneLTvg1s3bRVUybvsMu/uVeM6/899fy9a1fdDw8rPWrl77iayiHeyOAAAJbRcIKBL85BI9T8YRKQQWbdmZMwiEvtsTOfI34oU/3FZR2llWWf6LjWtqd4sq2cnmGACQ6FaHgILBT26hbFkIfI63+H6Dt/q24i0/2lBBDgyuHHxWXXVth9chC+axvMlRACC1rQoBhYOf3ELZNATmbsrO6cCXe/cBBf872he0faL8ca/Bfc9aV71up6iSHW2OAwA5wWoQ4OAnr0QyQWBBZEzw7776nTBrY4OgRuqmr/fthxE1G2Bj6F+yhQVdx7rO2rFuW3aoJNuaNNsdCQDSyCoQ4OAnb7TLU3FKCoElW3dlDALf4m3hka9sgLWfhXFThCl8ROFRP9c+1OqFtWxsdCwAyCe5hgAHP3khYZ5a4HPfltASUxiBwIb09gTomZDLX9sIr3+ixawp4egXHp/n7M+bP92c0BottPvA0QAg5+QKAhz8pL5xDvtD012F7nnGNdosS7btgpkbtrVNpPiffHJl7WZ4abf0R2Jfuo5x/SroD65PcZWWn93xACAPZBsCtKOZfJNP5PFemzzhR1KmNWvNoVvMQOChbR/ALXWpQaCltRWuwuB/IfCprA3feLyeX2u7tTdkFZ1gVwIA5KhsQYCDn9Q2nyMQ8HrmyOZ4uKHzEKDg/92b78Jf/NJnd75z+VznBQPBGtn2OMWuDADIYZmGAAc/qZx81gLBWS6TEKCPkiazhsjjiGu3QPWuj2Sz7Sko9Fyo+bUXZRV1uxOGSgGAHJYpCHDwk7qdz2YhsKzhQ5i6vj7y22Mza7t5XT2s2dEsq7rP7XWPCDcH/yKr6DS7cgAgByYLgZd2f0azGWYOfkNpkjJEITBbNtNj2/0wzQQEZuB1g+VN0rf5tBT4PKNCgdCzsvU60a4kAMiRyUBgzGub8MpxYghw8JOa6csIgSq3zz1DtkQZBOZt2g5L8bqBZDmt7kL32LA/uFpSz7FmZQFAHk0VAhz8pGL6c8gfutUsBKa83fF0gN44tLh+p2zDWvGc/xq8A0OflJPV7WB3SoHSACAndhYCHPykXuZyBAKF7umyNTzR6IdYCNBjxGbeOejyum7Ac37pK81l67e7XXkAkANjICB8xyA9RUanAy82fwYm7/PvL8jWF3uoIQ7LeHS+zUxPQHUEFwIAAAPSSURBVIfAw9s+gLnY9ZfJgD6ZogU06ctKZMtxgp0BEPUiQaD83HJTrxej58hNfLGnpSDyAs8sfrEn2hYnDZLpCdxi4olBl881MxwI3eEkjVJpCwMgRr3oi0alEIiZxWg08oRfOBC08gs8jbbdcuXUE8Cj9rRUNwxv9S3Q/NrcVJfjpPkZAHHepJ5A9EWjwtOBuNliJ7nbH6tGmsbDgdD8FCFwL97qo18ipmmLnLEYBkACP0YhIH3leIJZ6ch/Oe6s2ftQZ4KNcGoR6jrf5fPQOwWSbeISnOFGzJziFGAAxAmiT0YhkMzpAAX/GOyurtSXwcP0K6D5g3fiefxNSSx5OVQBfbCEngoG/muvAAOgvR7tpggCeGHwHCx8DbMo0QW/URz8IonSZ8Pz+LuxJzDJxBKfrKysHAdV0AJp+nPaYhgAEo+auDAYOfKH+YKfRMn0mrEncJer0CXq1j9TUVExprq6en961+yspTEATPiTegLRC4PxPxPdgxemRvOR34SIGaiiNWv3uLyu63HR8Uf4Z8uuKhtRU1OzD22cBAowAATixJoIAnhE+UXx0OJLsZw+gDm3pLzkxHCA7/OjHjlLWkBbVHxacRluwALMi4tOLflvHF5Ut7RO+lVPrKd8YgAksQvQEaXxzcancJbfYZ7ZUNvQgENOOVag8Y3GTbgJdItvYtNbDc/jeCvmtCcnLpAB4ESvcptYAZMKMABMCsXVWAEnKsAAcKJXuU2sgEkFGAAmheJqaivg1NYzAJzqWW4XK2BCAQaACZG4CivgVAUYAE71LLeLFTChAAPAhEhcRW0FnNx6BoCTvcttYwUkCjAAJAKxmRVwsgIMACd7l9vGCkgUYABIBGKz2go4vfUMAKd7mNvHCggUYAAIxGETK+B0BRgATvcwt48VECjAABCIwya1FVCh9QwAFbzMbWQFDBRgABgIw8WsgAoKMABU8DK3kRUwUIABYCAMF6utgCqtZwCo4mluJyuQQAEGQAJRuIgVUEUBBoAqnuZ2sgIJFGAAJBCFi9RWQKXWMwBU8ja3lRWIU4ABECcIT7ICKinAAFDJ29xWViBOAQZAnCA8qbYCqrWeAaCax7m9rECMAgyAGDF4lBVQTQEGgGoe5/ayAjEKMABixOBRtRVQsfUMABW9zm1mBaIKMACiQvCAFVBRAQaAil7nNrMCUQUYAFEheKC2Aqq2ngGgque53awAKsAAQBE4sQKqKsAAUNXz3G5WABVgAKAInNRWQOXWMwBU9j63XXkFGADK7wIsgMoKMABU9j63XXkFGADK7wJqC6B66/8fAAD//+oZd/wAAAAGSURBVAMAPNcb8efVBtIAAAAASUVORK5CYII=;" vertex="1" parent="CJOudteFChhYgeqdd8uz-1">
          <mxGeometry x="160" y="53" width="30" height="30" as="geometry" />
        </mxCell>
        <mxCell id="CJOudteFChhYgeqdd8uz-5" value="" style="endArrow=classic;html=1;rounded=0;strokeWidth=2;strokeColor=#4D4D4D;" edge="1" parent="CJOudteFChhYgeqdd8uz-0">
          <mxGeometry width="50" height="50" relative="1" as="geometry">
            <mxPoint x="30.900000000000006" y="90" as="sourcePoint" />
            <mxPoint x="30.900000000000006" y="120" as="targetPoint" />
          </mxGeometry>
        </mxCell>
      </root>
    </mxGraphModel>
  </diagram>
  <diagram name="paso_5" id="-b47tLIeIk2Ll7R45M-_">
    <mxGraphModel dx="1370" dy="843" grid="1" gridSize="10" guides="1" tooltips="1" connect="1" arrows="1" fold="1" page="1" pageScale="1" pageWidth="850" pageHeight="1100" math="0" shadow="0">
      <root>
        <mxCell id="yB8rYOjh2S92LLwKQ1Ry-0" />
        <mxCell id="yB8rYOjh2S92LLwKQ1Ry-1" parent="yB8rYOjh2S92LLwKQ1Ry-0" />
        <mxCell id="yB8rYOjh2S92LLwKQ1Ry-2" value="&lt;span style=&quot;color: rgb(77, 77, 77); font-family: &amp;quot;Cascadia Code&amp;quot;;&quot;&gt;&lt;font style=&quot;font-size: 18px;&quot;&gt;&quot;Bruno&quot;&lt;/font&gt;&lt;/span&gt;" style="rounded=0;whiteSpace=wrap;html=1;strokeWidth=1;fillColor=#DFEAF2;" parent="yB8rYOjh2S92LLwKQ1Ry-1" vertex="1">
          <mxGeometry x="285" y="305" width="120" height="70" as="geometry" />
        </mxCell>
        <mxCell id="yB8rYOjh2S92LLwKQ1Ry-3" value="&lt;span style=&quot;color: rgb(77, 77, 77); font-family: &amp;quot;Cascadia Code&amp;quot;;&quot;&gt;&lt;font style=&quot;font-size: 18px;&quot;&gt;&quot;Carla&quot;&lt;/font&gt;&lt;/span&gt;" style="rounded=0;whiteSpace=wrap;html=1;strokeWidth=1;fillColor=#DFEAF2;" parent="yB8rYOjh2S92LLwKQ1Ry-1" vertex="1">
          <mxGeometry x="405" y="305" width="120" height="70" as="geometry" />
        </mxCell>
        <mxCell id="yB8rYOjh2S92LLwKQ1Ry-4" value="&lt;span style=&quot;color: rgb(77, 77, 77); font-family: &amp;quot;Cascadia Code&amp;quot;;&quot;&gt;&lt;font style=&quot;font-size: 18px;&quot;&gt;&quot;Diego&quot;&lt;/font&gt;&lt;/span&gt;" style="rounded=0;whiteSpace=wrap;html=1;strokeWidth=1;fillColor=#DFEAF2;" parent="yB8rYOjh2S92LLwKQ1Ry-1" vertex="1">
          <mxGeometry x="525" y="305" width="120" height="70" as="geometry" />
        </mxCell>
        <mxCell id="yB8rYOjh2S92LLwKQ1Ry-5" value="&lt;span style=&quot;color: rgb(77, 77, 77); font-family: &amp;quot;Cascadia Code&amp;quot;;&quot;&gt;&lt;font style=&quot;font-size: 18px;&quot;&gt;&quot;Elena&quot;&lt;/font&gt;&lt;/span&gt;" style="rounded=0;whiteSpace=wrap;html=1;strokeWidth=1;fillColor=#DFEAF2;" parent="yB8rYOjh2S92LLwKQ1Ry-1" vertex="1">
          <mxGeometry x="645" y="305" width="120" height="70" as="geometry" />
        </mxCell>
        <mxCell id="yB8rYOjh2S92LLwKQ1Ry-6" value="&lt;span style=&quot;color: rgb(77, 77, 77); font-family: &amp;quot;Cascadia Code&amp;quot;;&quot;&gt;&lt;font style=&quot;font-size: 18px;&quot;&gt;&quot;Ana&quot;&lt;/font&gt;&lt;/span&gt;" style="rounded=0;whiteSpace=wrap;html=1;strokeWidth=1;fillColor=#DFEAF2;" parent="yB8rYOjh2S92LLwKQ1Ry-1" vertex="1">
          <mxGeometry x="165" y="305" width="120" height="70" as="geometry" />
        </mxCell>
        <mxCell id="qjUAtmvtaf3gFhJwP6tD-0" value="&lt;span style=&quot;color: rgb(77, 77, 77); font-family: &amp;quot;Cascadia Code&amp;quot;;&quot;&gt;&lt;font style=&quot;font-size: 18px;&quot;&gt;&quot;Francisco&quot;&lt;/font&gt;&lt;/span&gt;" style="rounded=0;whiteSpace=wrap;html=1;strokeWidth=1;dashed=1;dashPattern=8 8;" parent="yB8rYOjh2S92LLwKQ1Ry-1" vertex="1">
          <mxGeometry x="765" y="305" width="120" height="70" as="geometry" />
        </mxCell>
      </root>
    </mxGraphModel>
  </diagram>
</mxfile>
